<svg width="333" height="255" viewBox="0 0 333 255" fill="none" xmlns="http://www.w3.org/2000/svg">
<g clip-path="url(#clip0)">
<path opacity="0.1" d="M313.082 138.421C301.375 154.649 305.238 177.813 312.005 196.267C314.272 202.444 316.847 208.978 315.671 215.7C314.236 223.916 307.49 230.073 300.478 233.426C287.694 239.537 272.594 238.561 261.159 230.861C251.291 224.215 244.344 213.171 234.285 206.843C217.45 196.255 195.594 200.985 176.857 209.069C163.601 214.787 149.08 222.152 136.162 216.872C127.072 213.156 120.951 203.698 117.73 193.587C116.175 188.706 115.087 183.407 111.989 179.586C110.147 177.314 107.713 175.731 105.21 174.408C82.3671 162.325 52.9847 169.877 30.8387 156.395C15.8873 147.29 6.58159 129.621 2.71516 111.046C-1.15126 92.4712 -0.194375 72.8631 1.34562 53.5902C2.44006 39.8938 4.17143 25.2579 12.3229 14.4947C20.9439 3.11521 35.3929 -1.40696 48.3139 0.375323C61.2349 2.15761 72.8192 9.40759 82.9532 18.0623C95.629 28.8587 107.291 42.4131 123.056 46.5124C133.794 49.3036 145.202 47.328 156.365 46.455C175.024 44.999 193.617 46.6755 212.097 48.5696C229.788 50.3821 247.601 52.406 264.355 58.348C276.212 62.553 285.61 70.5008 296.773 75.9322C304.048 79.4726 312.053 80.2943 318.901 84.8678C327.351 90.5017 334.989 100.482 332.51 112.46C330.168 123.846 319.302 129.809 313.082 138.421Z" fill="#0096E6"/>
<g opacity="0.5">
<path opacity="0.5" d="M255.666 212.437C255.666 212.437 256.652 182.905 272.468 166.218C279.106 159.216 283.466 150.322 284.62 140.698C285.16 136.13 285.284 131.523 284.991 126.932" stroke="#535461" stroke-width="2" stroke-miterlimit="10"/>
<path opacity="0.5" d="M294.898 116.362C293.815 119.661 284.767 127.237 284.767 127.237C284.767 127.237 281.995 115.695 283.077 112.399C283.335 111.615 283.742 110.89 284.277 110.265C284.812 109.64 285.464 109.128 286.194 108.757C286.925 108.386 287.721 108.165 288.537 108.105C289.352 108.045 290.172 108.148 290.948 108.408C291.724 108.668 292.442 109.08 293.06 109.621C293.679 110.161 294.186 110.819 294.553 111.557C294.92 112.296 295.139 113.1 295.198 113.924C295.257 114.747 295.155 115.575 294.898 116.359V116.362Z" fill="#0096E6"/>
<path opacity="0.5" d="M298.669 137.901C295.977 140.076 284.315 141.471 284.315 141.471C284.315 141.471 288.203 130.261 290.894 128.089C291.527 127.532 292.265 127.111 293.063 126.85C293.861 126.589 294.704 126.493 295.539 126.569C296.375 126.645 297.187 126.891 297.927 127.292C298.666 127.693 299.317 128.241 299.842 128.903C300.366 129.564 300.753 130.327 300.978 131.143C301.204 131.96 301.263 132.814 301.154 133.654C301.044 134.495 300.768 135.304 300.341 136.034C299.913 136.764 299.345 137.399 298.669 137.901Z" fill="#0096E6"/>
<path opacity="0.5" d="M287.999 168.967C284.596 169.474 273.823 164.738 273.823 164.738C273.823 164.738 282.775 157.041 286.178 156.533C286.987 156.412 287.812 156.454 288.605 156.655C289.398 156.856 290.144 157.213 290.801 157.705C291.457 158.198 292.011 158.816 292.431 159.525C292.852 160.234 293.129 161.019 293.249 161.836C293.368 162.653 293.327 163.486 293.128 164.288C292.929 165.089 292.576 165.843 292.088 166.506C291.601 167.169 290.989 167.729 290.287 168.153C289.586 168.578 288.808 168.858 287.999 168.979V168.967Z" fill="#0096E6"/>
<path opacity="0.5" d="M274.684 190.638C271.415 191.72 260.001 188.88 260.001 188.88C260.001 188.88 267.54 179.766 270.808 178.685C272.377 178.164 274.087 178.294 275.561 179.047C277.035 179.8 278.153 181.113 278.668 182.698C279.184 184.283 279.055 186.01 278.31 187.499C277.565 188.988 276.265 190.118 274.696 190.638H274.684Z" fill="#0096E6"/>
<path opacity="0.5" d="M271.693 137.952C273.281 141.033 283.418 147.066 283.418 147.066C283.418 147.066 284.339 135.227 282.751 132.143C282.374 131.41 281.857 130.76 281.231 130.229C280.605 129.698 279.881 129.297 279.102 129.048C278.322 128.799 277.502 128.709 276.687 128.78C275.873 128.852 275.08 129.085 274.355 129.467C273.629 129.848 272.986 130.37 272.46 131.002C271.934 131.635 271.537 132.366 271.291 133.153C271.045 133.941 270.955 134.77 271.026 135.593C271.097 136.416 271.328 137.216 271.705 137.949L271.693 137.952Z" fill="#0096E6"/>
<path opacity="0.5" d="M256.44 163.493C258.868 165.955 270.315 168.65 270.315 168.65C270.315 168.65 267.686 157.074 265.261 154.612C264.096 153.43 262.514 152.765 260.862 152.761C259.211 152.758 257.626 153.418 256.456 154.595C255.287 155.773 254.628 157.371 254.625 159.039C254.622 160.707 255.275 162.308 256.44 163.49V163.493Z" fill="#0096E6"/>
<path opacity="0.5" d="M244.987 190.375C246.967 193.215 257.801 197.828 257.801 197.828C257.801 197.828 257.149 185.971 255.166 183.129C254.707 182.424 254.113 181.819 253.419 181.351C252.724 180.884 251.943 180.561 251.123 180.404C250.303 180.247 249.46 180.259 248.644 180.438C247.828 180.616 247.056 180.959 246.374 181.446C245.692 181.932 245.114 182.552 244.673 183.269C244.233 183.986 243.941 184.784 243.812 185.618C243.684 186.451 243.723 187.302 243.927 188.12C244.131 188.938 244.495 189.706 244.999 190.378L244.987 190.375Z" fill="#0096E6"/>
<path opacity="0.5" d="M259.14 200.214C259.14 200.214 250.169 187.031 251.742 174.628C252.435 169.43 251.441 164.145 248.907 159.566C247.688 157.402 246.274 155.355 244.685 153.452" stroke="#535461" stroke-width="2" stroke-miterlimit="10"/>
<path opacity="0.5" d="M245.633 145.628C246.21 147.416 244.685 153.657 244.685 153.657C244.685 153.657 239.802 149.531 239.225 147.746C238.947 146.887 239.019 145.952 239.423 145.147C239.828 144.342 240.533 143.732 241.382 143.451C242.232 143.171 243.157 143.243 243.955 143.652C244.752 144.061 245.356 144.773 245.633 145.631V145.628Z" fill="#0096E6"/>
<path opacity="0.5" d="M254.135 153.781C253.659 155.594 249.018 160.001 249.018 160.001C249.018 160.001 247.14 153.857 247.616 152.038C247.844 151.165 248.407 150.419 249.18 149.965C249.953 149.511 250.873 149.386 251.738 149.617C252.602 149.848 253.34 150.417 253.79 151.198C254.239 151.979 254.363 152.908 254.135 153.781Z" fill="#0096E6"/>
<path opacity="0.5" d="M259.379 170.776C258.061 172.102 251.856 173.537 251.856 173.537C251.856 173.537 253.303 167.275 254.625 165.949C254.939 165.634 255.312 165.384 255.721 165.214C256.131 165.044 256.57 164.957 257.013 164.959C257.456 164.96 257.894 165.05 258.303 165.222C258.711 165.395 259.082 165.647 259.394 165.964C259.707 166.282 259.954 166.658 260.122 167.072C260.29 167.486 260.376 167.929 260.375 168.376C260.373 168.824 260.285 169.267 260.114 169.679C259.943 170.092 259.694 170.467 259.379 170.782V170.776Z" fill="#0096E6"/>
<path opacity="0.5" d="M260.483 184.542C259.403 186.074 253.516 188.542 253.516 188.542C253.516 188.542 253.895 182.123 254.975 180.591C255.231 180.226 255.556 179.916 255.931 179.679C256.306 179.441 256.724 179.28 257.16 179.206C257.597 179.131 258.044 179.144 258.475 179.244C258.907 179.344 259.315 179.528 259.675 179.787C260.036 180.047 260.343 180.375 260.578 180.754C260.814 181.133 260.973 181.554 261.047 181.995C261.121 182.436 261.108 182.888 261.009 183.324C260.91 183.76 260.727 184.172 260.471 184.536L260.483 184.542Z" fill="#0096E6"/>
<path opacity="0.5" d="M242.404 162.563C244.075 163.39 250.406 162.726 250.406 162.726C250.406 162.726 247.036 157.27 245.364 156.446C244.561 156.049 243.635 155.991 242.79 156.284C241.944 156.577 241.249 157.198 240.856 158.009C240.464 158.82 240.406 159.756 240.696 160.61C240.986 161.464 241.601 162.166 242.404 162.563Z" fill="#0096E6"/>
<path opacity="0.5" d="M243.896 178.649C245.738 178.933 251.581 176.386 251.581 176.386C251.581 176.386 246.749 172.199 244.909 171.927C244.026 171.791 243.125 172.016 242.404 172.551C241.684 173.087 241.204 173.889 241.07 174.782C240.936 175.675 241.158 176.585 241.688 177.313C242.218 178.04 243.012 178.525 243.896 178.661V178.649Z" fill="#0096E6"/>
<path opacity="0.5" d="M247.466 194.076C249.234 194.68 255.42 193.17 255.42 193.17C255.42 193.17 251.36 188.219 249.592 187.623C248.744 187.339 247.818 187.406 247.019 187.811C246.219 188.216 245.612 188.925 245.33 189.782C245.048 190.639 245.114 191.574 245.515 192.382C245.916 193.19 246.618 193.803 247.466 194.088V194.076Z" fill="#0096E6"/>
<path opacity="0.5" d="M245.633 145.628C246.21 147.416 244.685 153.657 244.685 153.657C244.685 153.657 239.802 149.531 239.225 147.746C238.947 146.887 239.019 145.952 239.423 145.147C239.828 144.342 240.533 143.732 241.382 143.451C242.232 143.171 243.157 143.243 243.955 143.652C244.752 144.061 245.356 144.773 245.633 145.631V145.628Z" fill="white"/>
<path opacity="0.5" d="M254.135 153.781C253.659 155.594 249.018 160.001 249.018 160.001C249.018 160.001 247.14 153.857 247.616 152.038C247.844 151.165 248.407 150.419 249.18 149.965C249.953 149.511 250.873 149.386 251.738 149.617C252.602 149.848 253.34 150.417 253.79 151.198C254.239 151.979 254.363 152.908 254.135 153.781Z" fill="white"/>
<path opacity="0.5" d="M259.379 170.776C258.061 172.102 251.856 173.537 251.856 173.537C251.856 173.537 253.303 167.275 254.625 165.949C254.939 165.634 255.312 165.384 255.721 165.214C256.131 165.044 256.57 164.957 257.013 164.959C257.456 164.96 257.894 165.05 258.303 165.222C258.711 165.395 259.082 165.647 259.394 165.964C259.707 166.282 259.954 166.658 260.122 167.072C260.29 167.486 260.376 167.929 260.375 168.376C260.373 168.824 260.285 169.267 260.114 169.679C259.943 170.092 259.694 170.467 259.379 170.782V170.776Z" fill="white"/>
<path opacity="0.5" d="M260.483 184.542C259.403 186.074 253.516 188.542 253.516 188.542C253.516 188.542 253.895 182.123 254.975 180.591C255.231 180.226 255.556 179.916 255.931 179.679C256.306 179.441 256.724 179.28 257.16 179.206C257.597 179.131 258.044 179.144 258.475 179.244C258.907 179.344 259.315 179.528 259.675 179.787C260.036 180.047 260.343 180.375 260.578 180.754C260.814 181.133 260.973 181.554 261.047 181.995C261.121 182.436 261.108 182.888 261.009 183.324C260.91 183.76 260.727 184.172 260.471 184.536L260.483 184.542Z" fill="white"/>
<path opacity="0.5" d="M242.404 162.563C244.075 163.39 250.406 162.726 250.406 162.726C250.406 162.726 247.036 157.27 245.364 156.446C244.561 156.049 243.635 155.991 242.79 156.284C241.944 156.577 241.249 157.198 240.856 158.009C240.464 158.82 240.406 159.756 240.696 160.61C240.986 161.464 241.601 162.166 242.404 162.563Z" fill="white"/>
<path opacity="0.5" d="M243.896 178.649C245.738 178.933 251.581 176.386 251.581 176.386C251.581 176.386 246.749 172.199 244.909 171.927C244.026 171.791 243.125 172.016 242.404 172.551C241.684 173.087 241.204 173.889 241.07 174.782C240.936 175.675 241.158 176.585 241.688 177.313C242.218 178.04 243.012 178.525 243.896 178.661V178.649Z" fill="white"/>
<path opacity="0.5" d="M247.466 194.076C249.234 194.68 255.42 193.17 255.42 193.17C255.42 193.17 251.36 188.219 249.592 187.623C248.744 187.339 247.818 187.406 247.019 187.811C246.219 188.216 245.612 188.925 245.33 189.782C245.048 190.639 245.114 191.574 245.515 192.382C245.916 193.19 246.618 193.803 247.466 194.088V194.076Z" fill="white"/>
<path opacity="0.5" d="M242.541 235.96H268.057L274.438 196.65H236.163L242.541 235.96Z" fill="#474059"/>
<path opacity="0.1" d="M241.046 196.65L247.006 233.383H268.476L268.057 235.96H242.541L236.163 196.65H241.046Z" fill="black"/>
</g>
<path d="M247.379 11.8689H60.1882V240.032H247.379V11.8689Z" fill="url(#paint0_linear)"/>
<path d="M244.987 14.7869H62.5804V237.12H244.987V14.7869Z" fill="white"/>
<path d="M207.011 39.8598H133.45V43.4848H207.011V39.8598Z" fill="#C0BCCF"/>
<path d="M207.011 51.3389H133.45V54.9639H207.011V51.3389Z" fill="#C0BCCF"/>
<path d="M189.368 62.8181H151.093V66.443H189.368V62.8181Z" fill="#0096E6"/>
<path opacity="0.5" d="M207.011 112.662H133.45V116.287H207.011V112.662Z" fill="#C0BCCF"/>
<path opacity="0.5" d="M207.011 124.141H133.45V127.766H207.011V124.141Z" fill="#C0BCCF"/>
<path opacity="0.5" d="M189.368 135.62H151.093V139.245H189.368V135.62Z" fill="#0096E6"/>
<path opacity="0.5" d="M207.011 185.464H133.45V189.089H207.011V185.464Z" fill="#C0BCCF"/>
<path opacity="0.5" d="M207.011 196.943H133.45V200.568H207.011V196.943Z" fill="#C0BCCF"/>
<path opacity="0.5" d="M189.368 208.422H151.093V212.047H189.368V208.422Z" fill="#0096E6"/>
<g opacity="0.5">
<path opacity="0.5" d="M107.551 132.88L106.008 132.179C106.032 131.942 106.042 131.704 106.038 131.466C106.049 131.265 106.049 131.063 106.038 130.862C105.886 129.273 104.884 127.89 104.175 126.437C103.526 125.11 103.114 123.679 102.958 122.208C102.77 120.395 102.958 118.516 102.3 116.812C101.765 115.438 100.706 114.29 99.5732 113.275C98.301 112.069 96.8147 111.117 95.1924 110.469C93.5358 109.864 91.631 109.71 89.9744 110.327C88.4793 110.882 87.328 111.991 86.2156 113.07C85.4079 113.788 84.6944 114.609 84.0925 115.51C83.4137 116.634 83.1237 117.927 82.8964 119.202C82.5393 121.243 82.2938 123.302 82.1608 125.37C82.0442 127.095 81.8618 129.053 80.4025 130.11C79.6908 130.627 78.6891 130.917 78.3632 131.699C78.2708 131.934 78.2339 132.187 78.2555 132.439C78.2465 132.649 78.2616 132.858 78.3004 133.064C78.3213 133.185 78.3452 133.303 78.3751 133.424C77.9563 134.475 77.6047 135.553 77.3225 136.65C77.1043 137.466 76.9039 138.266 76.7245 139.043H77.2089H77.4661L80.253 139.109H80.2919L83.2822 139.179H83.2971L86.084 139.245H86.1528L86.9572 139.302H87.2203L98.3651 139.562H98.4249L99.1665 139.58H99.4266L101.657 139.632L104.947 139.707H104.971L107.447 139.768H107.71H108.218L108.086 137.145C108.631 133.131 107.551 132.88 107.551 132.88ZM95.0309 132.56C95.0309 134.783 92.6746 137.505 92.6746 137.505L90.3033 134.242L90.39 134.116L92.6746 137.257C92.6746 137.257 95.0309 134.539 95.0309 132.312C95.0859 132.199 95.1488 132.09 95.2193 131.986L95.2732 132.155C95.1827 132.284 95.1017 132.419 95.0309 132.56ZM98.6551 141.284C98.6551 141.172 98.6551 141.057 98.6342 140.946C98.6133 140.834 98.6163 140.734 98.6013 140.625C98.5864 140.517 98.5744 140.411 98.5595 140.302C98.5445 140.194 98.5236 140.088 98.5026 139.979C98.4817 139.87 98.4608 139.765 98.4369 139.656C98.4369 139.62 98.4219 139.586 98.4129 139.547C98.38 139.405 98.3442 139.263 98.3053 139.121C98.2664 138.979 98.2425 138.892 98.2066 138.78C98.2066 138.728 98.1767 138.677 98.1588 138.629C98.1408 138.58 98.1079 138.466 98.081 138.384L98.0272 138.227C98.0033 138.157 97.9793 138.085 97.9524 138.015C97.9076 137.889 97.8597 137.765 97.8119 137.638C97.764 137.511 97.7132 137.387 97.6624 137.263C97.5607 137.01 97.4501 136.759 97.3394 136.505C96.9058 135.526 96.4184 134.563 95.9699 133.608C95.7294 133.109 95.5157 132.596 95.33 132.074L95.2732 132.149C95.1825 132.279 95.1016 132.415 95.0309 132.557C95.0309 134.78 92.6746 137.502 92.6746 137.502L90.3033 134.239L88.2281 137.26C87.929 137.411 87.63 137.925 87.3968 138.656C87.331 138.852 87.2682 139.07 87.2084 139.296C87.1665 139.45 87.1277 139.598 87.0918 139.771C87.0708 139.852 87.0529 139.934 87.035 140.018L86.9811 140.275V140.314C86.9452 140.49 86.9094 140.671 86.8765 140.855C86.8436 141.039 86.8047 141.251 86.7718 141.459C86.7479 141.59 86.727 141.72 86.709 141.849C86.6672 142.1 86.6313 142.353 86.5954 142.607C86.5745 142.755 86.5535 142.909 86.5356 143.045L86.4638 143.607C86.6163 144.069 86.7868 144.513 86.9632 144.978C87.0754 145.223 87.1413 145.486 87.1576 145.755C90.8361 146.746 94.7075 146.746 98.386 145.755C98.3848 145.746 98.3848 145.737 98.386 145.728C98.3309 145.475 98.3068 145.216 98.3143 144.957C98.3747 144.231 98.4745 143.509 98.6133 142.794C98.6575 142.442 98.6765 142.086 98.6701 141.731V141.604C98.6611 141.489 98.6581 141.387 98.6551 141.287V141.284ZM98.6551 141.284C98.6551 141.172 98.6551 141.057 98.6342 140.946C98.6133 140.834 98.6163 140.734 98.6013 140.625C98.5864 140.517 98.5744 140.411 98.5595 140.302C98.5445 140.194 98.5236 140.088 98.5026 139.979C98.4817 139.87 98.4608 139.765 98.4369 139.656C98.4369 139.62 98.4219 139.586 98.4129 139.547C98.38 139.405 98.3442 139.263 98.3053 139.121C98.2664 138.979 98.2425 138.892 98.2066 138.78C98.2066 138.728 98.1767 138.677 98.1588 138.629C98.1408 138.58 98.1079 138.466 98.081 138.384L98.0272 138.227C98.0033 138.157 97.9793 138.085 97.9524 138.015C97.9076 137.889 97.8597 137.765 97.8119 137.638C97.764 137.511 97.7132 137.387 97.6624 137.263C97.5607 137.01 97.4501 136.759 97.3394 136.505C96.9058 135.526 96.4184 134.563 95.9699 133.608C95.7294 133.109 95.5157 132.596 95.33 132.074L95.2732 132.149C95.1825 132.279 95.1016 132.415 95.0309 132.557C95.0309 134.78 92.6746 137.502 92.6746 137.502L90.3033 134.239L88.2281 137.26C87.929 137.411 87.63 137.925 87.3968 138.656C87.331 138.852 87.2682 139.07 87.2084 139.296C87.1665 139.45 87.1277 139.598 87.0918 139.771C87.0708 139.852 87.0529 139.934 87.035 140.018L86.9811 140.275V140.314C86.9452 140.49 86.9094 140.671 86.8765 140.855C86.8436 141.039 86.8047 141.251 86.7718 141.459C86.7479 141.59 86.727 141.72 86.709 141.849C86.6672 142.1 86.6313 142.353 86.5954 142.607C86.5745 142.755 86.5535 142.909 86.5356 143.045L86.4638 143.607C86.6163 144.069 86.7868 144.513 86.9632 144.978C87.0754 145.223 87.1413 145.486 87.1576 145.755C90.8361 146.746 94.7075 146.746 98.386 145.755C98.3848 145.746 98.3848 145.737 98.386 145.728C98.3309 145.475 98.3068 145.216 98.3143 144.957C98.3747 144.231 98.4745 143.509 98.6133 142.794C98.6575 142.442 98.6765 142.086 98.6701 141.731V141.604C98.6611 141.489 98.6581 141.387 98.6551 141.287V141.284ZM98.6551 141.284C98.6551 141.172 98.6551 141.057 98.6342 140.946C98.6133 140.834 98.6163 140.734 98.6013 140.625C98.5864 140.517 98.5744 140.411 98.5595 140.302C98.5445 140.194 98.5236 140.088 98.5026 139.979C98.4817 139.87 98.4608 139.765 98.4369 139.656C98.4369 139.62 98.4219 139.586 98.4129 139.547C98.38 139.405 98.3442 139.263 98.3053 139.121C98.2664 138.979 98.2425 138.892 98.2066 138.78C98.2066 138.728 98.1767 138.677 98.1588 138.629C98.1408 138.58 98.1079 138.466 98.081 138.384L98.0272 138.227C98.0033 138.157 97.9793 138.085 97.9524 138.015C97.9076 137.889 97.8597 137.765 97.8119 137.638C97.764 137.511 97.7132 137.387 97.6624 137.263C97.5607 137.01 97.4501 136.759 97.3394 136.505C96.9058 135.526 96.4184 134.563 95.9699 133.608C95.7294 133.109 95.5157 132.596 95.33 132.074L95.2732 132.149C95.1825 132.279 95.1016 132.415 95.0309 132.557C95.0309 134.78 92.6746 137.502 92.6746 137.502L90.3033 134.239L88.2281 137.26C87.929 137.411 87.63 137.925 87.3968 138.656C87.331 138.852 87.2682 139.07 87.2084 139.296C87.1665 139.45 87.1277 139.598 87.0918 139.771C87.0708 139.852 87.0529 139.934 87.035 140.018L86.9811 140.275V140.314C86.9452 140.49 86.9094 140.671 86.8765 140.855C86.8436 141.039 86.8047 141.251 86.7718 141.459C86.7479 141.59 86.727 141.72 86.709 141.849C86.6672 142.1 86.6313 142.353 86.5954 142.607C86.5745 142.755 86.5535 142.909 86.5356 143.045L86.4638 143.607C86.6163 144.069 86.7868 144.513 86.9632 144.978C87.0754 145.223 87.1413 145.486 87.1576 145.755C90.8361 146.746 94.7075 146.746 98.386 145.755C98.3848 145.746 98.3848 145.737 98.386 145.728C98.3309 145.475 98.3068 145.216 98.3143 144.957C98.3747 144.231 98.4745 143.509 98.6133 142.794C98.6575 142.442 98.6765 142.086 98.6701 141.731V141.604C98.6611 141.489 98.6581 141.387 98.6551 141.287V141.284ZM98.6551 141.284C98.6551 141.172 98.6551 141.057 98.6342 140.946C98.6133 140.834 98.6163 140.734 98.6013 140.625C98.5864 140.517 98.5744 140.411 98.5595 140.302C98.5445 140.194 98.5236 140.088 98.5026 139.979C98.4817 139.87 98.4608 139.765 98.4369 139.656C98.4369 139.62 98.4219 139.586 98.4129 139.547C98.38 139.405 98.3442 139.263 98.3053 139.121C98.2664 138.979 98.2425 138.892 98.2066 138.78C98.2066 138.728 98.1767 138.677 98.1588 138.629C98.1408 138.58 98.1079 138.466 98.081 138.384L98.0272 138.227C98.0033 138.157 97.9793 138.085 97.9524 138.015C97.9076 137.889 97.8597 137.765 97.8119 137.638C97.764 137.511 97.7132 137.387 97.6624 137.263C97.5607 137.01 97.4501 136.759 97.3394 136.505C96.9058 135.526 96.4184 134.563 95.9699 133.608C95.7294 133.109 95.5157 132.596 95.33 132.074L95.2732 132.149C95.1825 132.279 95.1016 132.415 95.0309 132.557C95.0309 134.78 92.6746 137.502 92.6746 137.502L90.3033 134.239L88.2281 137.26C87.929 137.411 87.63 137.925 87.3968 138.656C87.331 138.852 87.2682 139.07 87.2084 139.296C87.1665 139.45 87.1277 139.598 87.0918 139.771C87.0708 139.852 87.0529 139.934 87.035 140.018L86.9811 140.275V140.314C86.9452 140.49 86.9094 140.671 86.8765 140.855C86.8436 141.039 86.8047 141.251 86.7718 141.459C86.7479 141.59 86.727 141.72 86.709 141.849C86.6672 142.1 86.6313 142.353 86.5954 142.607C86.5745 142.755 86.5535 142.909 86.5356 143.045L86.4638 143.607C86.6163 144.069 86.7868 144.513 86.9632 144.978C87.0754 145.223 87.1413 145.486 87.1576 145.755C90.8361 146.746 94.7075 146.746 98.386 145.755C98.3848 145.746 98.3848 145.737 98.386 145.728C98.3309 145.475 98.3068 145.216 98.3143 144.957C98.3747 144.231 98.4745 143.509 98.6133 142.794C98.6575 142.442 98.6765 142.086 98.6701 141.731V141.604C98.6611 141.489 98.6581 141.387 98.6551 141.287V141.284Z" fill="url(#paint1_linear)"/>
<path opacity="0.5" d="M98.7628 120.214H85.0076V129.578H98.7628V120.214Z" fill="#493545"/>
<path opacity="0.5" d="M101.047 130.542L95.2911 138.734L89.2747 138.206C89.2747 138.206 81.4252 138.731 86.6582 132.657C89.173 129.735 89.9954 127.301 90.1718 125.564C90.3632 123.685 89.798 122.615 89.798 122.615L96.3377 121.824C96.0426 122.714 96.0053 123.671 96.2301 124.582C97.0494 128.014 101.047 130.542 101.047 130.542Z" fill="#C77485"/>
<path opacity="0.1" d="M96.2271 124.573C95.3742 125.225 94.3758 125.656 93.3195 125.828C92.2632 126 91.1813 125.907 90.1688 125.558C90.3602 123.679 89.795 122.609 89.795 122.609L96.3348 121.818C96.0402 122.707 96.0029 123.663 96.2271 124.573Z" fill="black"/>
<path opacity="0.5" d="M92.2829 125.648C95.8947 125.648 98.8226 122.69 98.8226 119.042C98.8226 115.393 95.8947 112.435 92.2829 112.435C88.6711 112.435 85.7432 115.393 85.7432 119.042C85.7432 122.69 88.6711 125.648 92.2829 125.648Z" fill="#C77485"/>
<path opacity="0.1" d="M100.808 130.88L100.656 130.276L100.524 129.744L100.33 128.959L100.294 128.814L100.264 128.693C100.264 128.693 100.419 128.219 99.3937 128.373L99.2024 128.406C99.0409 128.439 98.8525 128.485 98.6372 128.545L98.4428 128.606L98.1857 128.687C97.3715 128.955 96.6289 129.408 96.0147 130.01C95.7391 130.277 95.4952 130.575 95.2881 130.898C95.2672 130.929 95.2522 130.956 95.2343 130.98C95.1635 131.092 95.1005 131.209 95.0459 131.33C95.0459 133.711 92.6895 136.617 92.6895 136.617L90.39 133.261L90.3452 133.194L89.798 132.391L89.6036 132.131L89.5378 132.04L88.3417 130.418L88.0427 130.013L87.944 129.877L87.7975 129.681L87.4536 129.219L86.108 130.013L84.3138 131.071L83.2672 137.943V138.133L83.3001 138.701L83.5184 142.435V142.486L83.1356 144.033L83.1924 144.063C84.0956 144.555 85.0354 144.976 86.0033 145.32L86.2575 145.411C86.5565 145.51 86.8376 145.601 87.1306 145.688C87.1415 145.733 87.1495 145.779 87.1545 145.824C87.1545 145.782 87.1545 145.737 87.1545 145.694C90.8239 146.754 94.7136 146.754 98.383 145.694L98.4518 145.673C98.6223 145.625 98.7957 145.574 98.9631 145.516L99.2353 145.429C99.9731 145.179 100.696 144.887 101.4 144.553L101.651 139.145L101.831 135.245V135.022L100.808 130.88Z" fill="black"/>
<path opacity="0.5" d="M98.6552 140.925C98.6552 140.804 98.6552 140.683 98.6342 140.562C98.6133 140.441 98.6163 140.335 98.6013 140.221C98.5864 140.106 98.5744 139.991 98.5595 139.876C98.5445 139.762 98.5236 139.647 98.5027 139.532C98.4817 139.417 98.4608 139.302 98.4369 139.188C98.4369 139.148 98.4219 139.112 98.413 139.073C98.3801 138.922 98.3442 138.771 98.3053 138.617C98.2664 138.463 98.2425 138.372 98.2066 138.251C98.2066 138.197 98.1767 138.142 98.1588 138.091C98.1408 138.04 98.1079 137.916 98.081 137.828L98.0272 137.659C98.0033 137.583 97.9794 137.508 97.9524 137.432C97.9076 137.297 97.8597 137.164 97.8119 137.028C97.7641 136.892 97.7132 136.759 97.6624 136.626C97.5607 136.354 97.4501 136.085 97.3394 135.816C96.9059 134.771 96.4184 133.741 95.9699 132.72C95.7288 132.185 95.5153 131.637 95.33 131.08L95.2732 131.161C95.1822 131.3 95.1013 131.446 95.031 131.596C95.031 133.974 92.6746 136.883 92.6746 136.883L90.3033 133.394L88.2281 136.617C87.929 136.777 87.63 137.327 87.3968 138.109C87.331 138.321 87.2682 138.55 87.2084 138.795C87.1665 138.958 87.1277 139.13 87.0918 139.302C87.0708 139.39 87.0529 139.478 87.035 139.568L86.9811 139.843V139.885C86.9452 140.073 86.9094 140.266 86.8765 140.462C86.8436 140.659 86.8047 140.885 86.7718 141.1C86.7479 141.239 86.727 141.378 86.709 141.517C86.6672 141.785 86.6313 142.057 86.5954 142.326C86.5745 142.483 86.5535 142.628 86.5356 142.794L86.4638 143.399C86.6163 143.894 86.7868 144.383 86.9632 144.864C87.0759 145.127 87.1417 145.408 87.1576 145.694C90.8269 146.754 94.7167 146.754 98.386 145.694C98.3847 145.684 98.3847 145.674 98.386 145.664C98.3308 145.393 98.3067 145.116 98.3143 144.84C98.3746 144.065 98.4745 143.293 98.6133 142.529C98.6574 142.152 98.6764 141.772 98.6701 141.393V141.257C98.6611 141.142 98.6582 141.033 98.6552 140.925ZM98.6552 140.925C98.6552 140.804 98.6552 140.683 98.6342 140.562C98.6133 140.441 98.6163 140.335 98.6013 140.221C98.5864 140.106 98.5744 139.991 98.5595 139.876C98.5445 139.762 98.5236 139.647 98.5027 139.532C98.4817 139.417 98.4608 139.302 98.4369 139.188C98.4369 139.148 98.4219 139.112 98.413 139.073C98.3801 138.922 98.3442 138.771 98.3053 138.617C98.2664 138.463 98.2425 138.372 98.2066 138.251C98.2066 138.197 98.1767 138.142 98.1588 138.091C98.1408 138.04 98.1079 137.916 98.081 137.828L98.0272 137.659C98.0033 137.583 97.9794 137.508 97.9524 137.432C97.9076 137.297 97.8597 137.164 97.8119 137.028C97.7641 136.892 97.7132 136.759 97.6624 136.626C97.5607 136.354 97.4501 136.085 97.3394 135.816C96.9059 134.771 96.4184 133.741 95.9699 132.72C95.7288 132.185 95.5153 131.637 95.33 131.08L95.2732 131.161C95.1822 131.3 95.1013 131.446 95.031 131.596C95.031 133.974 92.6746 136.883 92.6746 136.883L90.3033 133.394L88.2281 136.617C87.929 136.777 87.63 137.327 87.3968 138.109C87.331 138.321 87.2682 138.55 87.2084 138.795C87.1665 138.958 87.1277 139.13 87.0918 139.302C87.0708 139.39 87.0529 139.478 87.035 139.568L86.9811 139.843V139.885C86.9452 140.073 86.9094 140.266 86.8765 140.462C86.8436 140.659 86.8047 140.885 86.7718 141.1C86.7479 141.239 86.727 141.378 86.709 141.517C86.6672 141.785 86.6313 142.057 86.5954 142.326C86.5745 142.483 86.5535 142.628 86.5356 142.794L86.4638 143.399C86.6163 143.894 86.7868 144.383 86.9632 144.864C87.0759 145.127 87.1417 145.408 87.1576 145.694C90.8269 146.754 94.7167 146.754 98.386 145.694C98.3847 145.684 98.3847 145.674 98.386 145.664C98.3308 145.393 98.3067 145.116 98.3143 144.84C98.3746 144.065 98.4745 143.293 98.6133 142.529C98.6574 142.152 98.6764 141.772 98.6701 141.393V141.257C98.6611 141.142 98.6582 141.033 98.6552 140.925ZM98.6552 140.925C98.6552 140.804 98.6552 140.683 98.6342 140.562C98.6133 140.441 98.6163 140.335 98.6013 140.221C98.5864 140.106 98.5744 139.991 98.5595 139.876C98.5445 139.762 98.5236 139.647 98.5027 139.532C98.4817 139.417 98.4608 139.302 98.4369 139.188C98.4369 139.148 98.4219 139.112 98.413 139.073C98.3801 138.922 98.3442 138.771 98.3053 138.617C98.2664 138.463 98.2425 138.372 98.2066 138.251C98.2066 138.197 98.1767 138.142 98.1588 138.091C98.1408 138.04 98.1079 137.916 98.081 137.828L98.0272 137.659C98.0033 137.583 97.9794 137.508 97.9524 137.432C97.9076 137.297 97.8597 137.164 97.8119 137.028C97.7641 136.892 97.7132 136.759 97.6624 136.626C97.5607 136.354 97.4501 136.085 97.3394 135.816C96.9059 134.771 96.4184 133.741 95.9699 132.72C95.7288 132.185 95.5153 131.637 95.33 131.08L95.2732 131.161C95.1822 131.3 95.1013 131.446 95.031 131.596C95.031 133.974 92.6746 136.883 92.6746 136.883L90.3033 133.394L88.2281 136.617C87.929 136.777 87.63 137.327 87.3968 138.109C87.331 138.321 87.2682 138.55 87.2084 138.795C87.1665 138.958 87.1277 139.13 87.0918 139.302C87.0708 139.39 87.0529 139.478 87.035 139.568L86.9811 139.843V139.885C86.9452 140.073 86.9094 140.266 86.8765 140.462C86.8436 140.659 86.8047 140.885 86.7718 141.1C86.7479 141.239 86.727 141.378 86.709 141.517C86.6672 141.785 86.6313 142.057 86.5954 142.326C86.5745 142.483 86.5535 142.628 86.5356 142.794L86.4638 143.399C86.6163 143.894 86.7868 144.383 86.9632 144.864C87.0759 145.127 87.1417 145.408 87.1576 145.694C90.8269 146.754 94.7167 146.754 98.386 145.694C98.3847 145.684 98.3847 145.674 98.386 145.664C98.3308 145.393 98.3067 145.116 98.3143 144.84C98.3746 144.065 98.4745 143.293 98.6133 142.529C98.6574 142.152 98.6764 141.772 98.6701 141.393V141.257C98.6611 141.142 98.6582 141.033 98.6552 140.925ZM101.825 135.254L100.757 130.95L100.575 130.213L100.524 130.01L100.264 128.959C100.265 128.95 100.265 128.941 100.264 128.932C100.27 128.885 100.263 128.838 100.243 128.796C100.204 128.717 100.105 128.636 99.8752 128.615C99.7876 128.608 99.6997 128.608 99.6121 128.615C99.3522 128.641 99.0951 128.689 98.8436 128.76C98.721 128.793 98.5894 128.829 98.4488 128.874L98.1917 128.956H98.1677C97.479 129.184 96.8396 129.543 96.2839 130.013C95.9167 130.323 95.5946 130.683 95.327 131.083L95.2702 131.164C95.1793 131.303 95.0983 131.449 95.028 131.599C95.028 133.977 92.6716 136.886 92.6716 136.886L90.3003 133.397L90.1658 133.2L90.1418 133.167L89.798 132.657L89.5378 132.306L89.469 132.215L88.243 130.563L87.8543 130.028V130.01L87.7197 129.826L87.4626 129.482L86.5655 130.01L84.3228 131.33L83.2881 138.13V138.203L83.318 138.698L83.5393 142.483V142.698L83.2014 144.06C84.1046 144.552 85.0444 144.972 86.0123 145.317L86.2664 145.407C86.5655 145.507 86.8466 145.598 87.1396 145.685C87.1505 145.73 87.1585 145.776 87.1635 145.821C87.1635 145.779 87.1635 145.734 87.1635 145.691C90.8329 146.751 94.7226 146.751 98.392 145.691L98.4608 145.67C98.6312 145.622 98.8047 145.571 98.9721 145.513L99.2442 145.426C99.9821 145.176 100.705 144.884 101.409 144.55L101.657 139.148L101.837 135.291L101.825 135.254ZM87.1187 145.685C87.1295 145.73 87.1375 145.776 87.1426 145.821C87.1426 145.779 87.1426 145.734 87.1426 145.691L87.1187 145.685ZM98.6552 140.925C98.6552 140.804 98.6552 140.683 98.6342 140.562C98.6133 140.441 98.6163 140.335 98.6013 140.221C98.5864 140.106 98.5744 139.991 98.5595 139.876C98.5445 139.762 98.5236 139.647 98.5027 139.532C98.4817 139.417 98.4608 139.302 98.4369 139.188C98.4369 139.148 98.4219 139.112 98.413 139.073C98.3801 138.922 98.3442 138.771 98.3053 138.617C98.2664 138.463 98.2425 138.372 98.2066 138.251C98.2066 138.197 98.1767 138.142 98.1588 138.091C98.1408 138.04 98.1079 137.916 98.081 137.828L98.0272 137.659C98.0033 137.583 97.9794 137.508 97.9524 137.432C97.9076 137.297 97.8597 137.164 97.8119 137.028C97.7641 136.892 97.7132 136.759 97.6624 136.626C97.5607 136.354 97.4501 136.085 97.3394 135.816C96.9059 134.771 96.4184 133.741 95.9699 132.72C95.7288 132.185 95.5153 131.637 95.33 131.08L95.2732 131.161C95.1822 131.3 95.1013 131.446 95.031 131.596C95.031 133.974 92.6746 136.883 92.6746 136.883L90.3033 133.394L88.2281 136.617C87.929 136.777 87.63 137.327 87.3968 138.109C87.331 138.321 87.2682 138.55 87.2084 138.795C87.1665 138.958 87.1277 139.13 87.0918 139.302C87.0708 139.39 87.0529 139.478 87.035 139.568L86.9811 139.843V139.885C86.9452 140.073 86.9094 140.266 86.8765 140.462C86.8436 140.659 86.8047 140.885 86.7718 141.1C86.7479 141.239 86.727 141.378 86.709 141.517C86.6672 141.785 86.6313 142.057 86.5954 142.326C86.5745 142.483 86.5535 142.628 86.5356 142.794L86.4638 143.399C86.6163 143.894 86.7868 144.383 86.9632 144.864C87.0759 145.127 87.1417 145.408 87.1576 145.694C90.8269 146.754 94.7167 146.754 98.386 145.694C98.3847 145.684 98.3847 145.674 98.386 145.664C98.3308 145.393 98.3067 145.116 98.3143 144.84C98.3746 144.065 98.4745 143.293 98.6133 142.529C98.6574 142.152 98.6764 141.772 98.6701 141.393V141.257C98.6611 141.142 98.6582 141.033 98.6552 140.925ZM98.6552 140.925C98.6552 140.804 98.6552 140.683 98.6342 140.562C98.6133 140.441 98.6163 140.335 98.6013 140.221C98.5864 140.106 98.5744 139.991 98.5595 139.876C98.5445 139.762 98.5236 139.647 98.5027 139.532C98.4817 139.417 98.4608 139.302 98.4369 139.188C98.4369 139.148 98.4219 139.112 98.413 139.073C98.3801 138.922 98.3442 138.771 98.3053 138.617C98.2664 138.463 98.2425 138.372 98.2066 138.251C98.2066 138.197 98.1767 138.142 98.1588 138.091C98.1408 138.04 98.1079 137.916 98.081 137.828L98.0272 137.659C98.0033 137.583 97.9794 137.508 97.9524 137.432C97.9076 137.297 97.8597 137.164 97.8119 137.028C97.7641 136.892 97.7132 136.759 97.6624 136.626C97.5607 136.354 97.4501 136.085 97.3394 135.816C96.9059 134.771 96.4184 133.741 95.9699 132.72C95.7288 132.185 95.5153 131.637 95.33 131.08L95.2732 131.161C95.1822 131.3 95.1013 131.446 95.031 131.596C95.031 133.974 92.6746 136.883 92.6746 136.883L90.3033 133.394L88.2281 136.617C87.929 136.777 87.63 137.327 87.3968 138.109C87.331 138.321 87.2682 138.55 87.2084 138.795C87.1665 138.958 87.1277 139.13 87.0918 139.302C87.0708 139.39 87.0529 139.478 87.035 139.568L86.9811 139.843V139.885C86.9452 140.073 86.9094 140.266 86.8765 140.462C86.8436 140.659 86.8047 140.885 86.7718 141.1C86.7479 141.239 86.727 141.378 86.709 141.517C86.6672 141.785 86.6313 142.057 86.5954 142.326C86.5745 142.483 86.5535 142.628 86.5356 142.794L86.4638 143.399C86.6163 143.894 86.7868 144.383 86.9632 144.864C87.0759 145.127 87.1417 145.408 87.1576 145.694C90.8269 146.754 94.7167 146.754 98.386 145.694C98.3847 145.684 98.3847 145.674 98.386 145.664C98.3308 145.393 98.3067 145.116 98.3143 144.84C98.3746 144.065 98.4745 143.293 98.6133 142.529C98.6574 142.152 98.6764 141.772 98.6701 141.393V141.257C98.6611 141.142 98.6582 141.033 98.6552 140.925ZM98.6552 140.925C98.6552 140.804 98.6552 140.683 98.6342 140.562C98.6133 140.441 98.6163 140.335 98.6013 140.221C98.5864 140.106 98.5744 139.991 98.5595 139.876C98.5445 139.762 98.5236 139.647 98.5027 139.532C98.4817 139.417 98.4608 139.302 98.4369 139.188C98.4369 139.148 98.4219 139.112 98.413 139.073C98.3801 138.922 98.3442 138.771 98.3053 138.617C98.2664 138.463 98.2425 138.372 98.2066 138.251C98.2066 138.197 98.1767 138.142 98.1588 138.091C98.1408 138.04 98.1079 137.916 98.081 137.828L98.0272 137.659C98.0033 137.583 97.9794 137.508 97.9524 137.432C97.9076 137.297 97.8597 137.164 97.8119 137.028C97.7641 136.892 97.7132 136.759 97.6624 136.626C97.5607 136.354 97.4501 136.085 97.3394 135.816C96.9059 134.771 96.4184 133.741 95.9699 132.72C95.7288 132.185 95.5153 131.637 95.33 131.08L95.2732 131.161C95.1822 131.3 95.1013 131.446 95.031 131.596C95.031 133.974 92.6746 136.883 92.6746 136.883L90.3033 133.394L88.2281 136.617C87.929 136.777 87.63 137.327 87.3968 138.109C87.331 138.321 87.2682 138.55 87.2084 138.795C87.1665 138.958 87.1277 139.13 87.0918 139.302C87.0708 139.39 87.0529 139.478 87.035 139.568L86.9811 139.843V139.885C86.9452 140.073 86.9094 140.266 86.8765 140.462C86.8436 140.659 86.8047 140.885 86.7718 141.1C86.7479 141.239 86.727 141.378 86.709 141.517C86.6672 141.785 86.6313 142.057 86.5954 142.326C86.5745 142.483 86.5535 142.628 86.5356 142.794L86.4638 143.399C86.6163 143.894 86.7868 144.383 86.9632 144.864C87.0759 145.127 87.1417 145.408 87.1576 145.694C90.8269 146.754 94.7167 146.754 98.386 145.694C98.3847 145.684 98.3847 145.674 98.386 145.664C98.3308 145.393 98.3067 145.116 98.3143 144.84C98.3746 144.065 98.4745 143.293 98.6133 142.529C98.6574 142.152 98.6764 141.772 98.6701 141.393V141.257C98.6611 141.142 98.6582 141.033 98.6552 140.925ZM98.6552 140.925C98.6552 140.804 98.6552 140.683 98.6342 140.562C98.6133 140.441 98.6163 140.335 98.6013 140.221C98.5864 140.106 98.5744 139.991 98.5595 139.876C98.5445 139.762 98.5236 139.647 98.5027 139.532C98.4817 139.417 98.4608 139.302 98.4369 139.188C98.4369 139.148 98.4219 139.112 98.413 139.073C98.3801 138.922 98.3442 138.771 98.3053 138.617C98.2664 138.463 98.2425 138.372 98.2066 138.251C98.2066 138.197 98.1767 138.142 98.1588 138.091C98.1408 138.04 98.1079 137.916 98.081 137.828L98.0272 137.659C98.0033 137.583 97.9794 137.508 97.9524 137.432C97.9076 137.297 97.8597 137.164 97.8119 137.028C97.7641 136.892 97.7132 136.759 97.6624 136.626C97.5607 136.354 97.4501 136.085 97.3394 135.816C96.9059 134.771 96.4184 133.741 95.9699 132.72C95.7288 132.185 95.5153 131.637 95.33 131.08L95.2732 131.161C95.1822 131.3 95.1013 131.446 95.031 131.596C95.031 133.974 92.6746 136.883 92.6746 136.883L90.3033 133.394L88.2281 136.617C87.929 136.777 87.63 137.327 87.3968 138.109C87.331 138.321 87.2682 138.55 87.2084 138.795C87.1665 138.958 87.1277 139.13 87.0918 139.302C87.0708 139.39 87.0529 139.478 87.035 139.568L86.9811 139.843V139.885C86.9452 140.073 86.9094 140.266 86.8765 140.462C86.8436 140.659 86.8047 140.885 86.7718 141.1C86.7479 141.239 86.727 141.378 86.709 141.517C86.6672 141.785 86.6313 142.057 86.5954 142.326C86.5745 142.483 86.5535 142.628 86.5356 142.794L86.4638 143.399C86.6163 143.894 86.7868 144.383 86.9632 144.864C87.0759 145.127 87.1417 145.408 87.1576 145.694C90.8269 146.754 94.7167 146.754 98.386 145.694C98.3847 145.684 98.3847 145.674 98.386 145.664C98.3308 145.393 98.3067 145.116 98.3143 144.84C98.3746 144.065 98.4745 143.293 98.6133 142.529C98.6574 142.152 98.6764 141.772 98.6701 141.393V141.257C98.6611 141.142 98.6582 141.033 98.6552 140.925ZM98.6552 140.925C98.6552 140.804 98.6552 140.683 98.6342 140.562C98.6133 140.441 98.6163 140.335 98.6013 140.221C98.5864 140.106 98.5744 139.991 98.5595 139.876C98.5445 139.762 98.5236 139.647 98.5027 139.532C98.4817 139.417 98.4608 139.302 98.4369 139.188C98.4369 139.148 98.4219 139.112 98.413 139.073C98.3801 138.922 98.3442 138.771 98.3053 138.617C98.2664 138.463 98.2425 138.372 98.2066 138.251C98.2066 138.197 98.1767 138.142 98.1588 138.091C98.1408 138.04 98.1079 137.916 98.081 137.828L98.0272 137.659C98.0033 137.583 97.9794 137.508 97.9524 137.432C97.9076 137.297 97.8597 137.164 97.8119 137.028C97.7641 136.892 97.7132 136.759 97.6624 136.626C97.5607 136.354 97.4501 136.085 97.3394 135.816C96.9059 134.771 96.4184 133.741 95.9699 132.72C95.7288 132.185 95.5153 131.637 95.33 131.08L95.2732 131.161C95.1822 131.3 95.1013 131.446 95.031 131.596C95.031 133.974 92.6746 136.883 92.6746 136.883L90.3033 133.394L88.2281 136.617C87.929 136.777 87.63 137.327 87.3968 138.109C87.331 138.321 87.2682 138.55 87.2084 138.795C87.1665 138.958 87.1277 139.13 87.0918 139.302C87.0708 139.39 87.0529 139.478 87.035 139.568L86.9811 139.843V139.885C86.9452 140.073 86.9094 140.266 86.8765 140.462C86.8436 140.659 86.8047 140.885 86.7718 141.1C86.7479 141.239 86.727 141.378 86.709 141.517C86.6672 141.785 86.6313 142.057 86.5954 142.326C86.5745 142.483 86.5535 142.628 86.5356 142.794L86.4638 143.399C86.6163 143.894 86.7868 144.383 86.9632 144.864C87.0759 145.127 87.1417 145.408 87.1576 145.694C90.8269 146.754 94.7167 146.754 98.386 145.694C98.3847 145.684 98.3847 145.674 98.386 145.664C98.3308 145.393 98.3067 145.116 98.3143 144.84C98.3746 144.065 98.4745 143.293 98.6133 142.529C98.6574 142.152 98.6764 141.772 98.6701 141.393V141.257C98.6611 141.142 98.6582 141.033 98.6552 140.925ZM98.6552 140.925C98.6552 140.804 98.6552 140.683 98.6342 140.562C98.6133 140.441 98.6163 140.335 98.6013 140.221C98.5864 140.106 98.5744 139.991 98.5595 139.876C98.5445 139.762 98.5236 139.647 98.5027 139.532C98.4817 139.417 98.4608 139.302 98.4369 139.188C98.4369 139.148 98.4219 139.112 98.413 139.073C98.3801 138.922 98.3442 138.771 98.3053 138.617C98.2664 138.463 98.2425 138.372 98.2066 138.251C98.2066 138.197 98.1767 138.142 98.1588 138.091C98.1408 138.04 98.1079 137.916 98.081 137.828L98.0272 137.659C98.0033 137.583 97.9794 137.508 97.9524 137.432C97.9076 137.297 97.8597 137.164 97.8119 137.028C97.7641 136.892 97.7132 136.759 97.6624 136.626C97.5607 136.354 97.4501 136.085 97.3394 135.816C96.9059 134.771 96.4184 133.741 95.9699 132.72C95.7288 132.185 95.5153 131.637 95.33 131.08L95.2732 131.161C95.1822 131.3 95.1013 131.446 95.031 131.596C95.031 133.974 92.6746 136.883 92.6746 136.883L90.3033 133.394L88.2281 136.617C87.929 136.777 87.63 137.327 87.3968 138.109C87.331 138.321 87.2682 138.55 87.2084 138.795C87.1665 138.958 87.1277 139.13 87.0918 139.302C87.0708 139.39 87.0529 139.478 87.035 139.568L86.9811 139.843V139.885C86.9452 140.073 86.9094 140.266 86.8765 140.462C86.8436 140.659 86.8047 140.885 86.7718 141.1C86.7479 141.239 86.727 141.378 86.709 141.517C86.6672 141.785 86.6313 142.057 86.5954 142.326C86.5745 142.483 86.5535 142.628 86.5356 142.794L86.4638 143.399C86.6163 143.894 86.7868 144.383 86.9632 144.864C87.0759 145.127 87.1417 145.408 87.1576 145.694C90.8269 146.754 94.7167 146.754 98.386 145.694C98.3847 145.684 98.3847 145.674 98.386 145.664C98.3308 145.393 98.3067 145.116 98.3143 144.84C98.3746 144.065 98.4745 143.293 98.6133 142.529C98.6574 142.152 98.6764 141.772 98.6701 141.393V141.257C98.6611 141.142 98.6582 141.033 98.6552 140.925ZM98.6552 140.925C98.6552 140.804 98.6552 140.683 98.6342 140.562C98.6133 140.441 98.6163 140.335 98.6013 140.221C98.5864 140.106 98.5744 139.991 98.5595 139.876C98.5445 139.762 98.5236 139.647 98.5027 139.532C98.4817 139.417 98.4608 139.302 98.4369 139.188C98.4369 139.148 98.4219 139.112 98.413 139.073C98.3801 138.922 98.3442 138.771 98.3053 138.617C98.2664 138.463 98.2425 138.372 98.2066 138.251C98.2066 138.197 98.1767 138.142 98.1588 138.091C98.1408 138.04 98.1079 137.916 98.081 137.828L98.0272 137.659C98.0033 137.583 97.9794 137.508 97.9524 137.432C97.9076 137.297 97.8597 137.164 97.8119 137.028C97.7641 136.892 97.7132 136.759 97.6624 136.626C97.5607 136.354 97.4501 136.085 97.3394 135.816C96.9059 134.771 96.4184 133.741 95.9699 132.72C95.7288 132.185 95.5153 131.637 95.33 131.08L95.2732 131.161C95.1822 131.3 95.1013 131.446 95.031 131.596C95.031 133.974 92.6746 136.883 92.6746 136.883L90.3033 133.394L88.2281 136.617C87.929 136.777 87.63 137.327 87.3968 138.109C87.331 138.321 87.2682 138.55 87.2084 138.795C87.1665 138.958 87.1277 139.13 87.0918 139.302C87.0708 139.39 87.0529 139.478 87.035 139.568L86.9811 139.843V139.885C86.9452 140.073 86.9094 140.266 86.8765 140.462C86.8436 140.659 86.8047 140.885 86.7718 141.1C86.7479 141.239 86.727 141.378 86.709 141.517C86.6672 141.785 86.6313 142.057 86.5954 142.326C86.5745 142.483 86.5535 142.628 86.5356 142.794L86.4638 143.399C86.6163 143.894 86.7868 144.383 86.9632 144.864C87.0759 145.127 87.1417 145.408 87.1576 145.694C90.8269 146.754 94.7167 146.754 98.386 145.694C98.3847 145.684 98.3847 145.674 98.386 145.664C98.3308 145.393 98.3067 145.116 98.3143 144.84C98.3746 144.065 98.4745 143.293 98.6133 142.529C98.6574 142.152 98.6764 141.772 98.6701 141.393V141.257C98.6611 141.142 98.6582 141.033 98.6552 140.925ZM98.6552 140.925C98.6552 140.804 98.6552 140.683 98.6342 140.562C98.6133 140.441 98.6163 140.335 98.6013 140.221C98.5864 140.106 98.5744 139.991 98.5595 139.876C98.5445 139.762 98.5236 139.647 98.5027 139.532C98.4817 139.417 98.4608 139.302 98.4369 139.188C98.4369 139.148 98.4219 139.112 98.413 139.073C98.3801 138.922 98.3442 138.771 98.3053 138.617C98.2664 138.463 98.2425 138.372 98.2066 138.251C98.2066 138.197 98.1767 138.142 98.1588 138.091C98.1408 138.04 98.1079 137.916 98.081 137.828L98.0272 137.659C98.0033 137.583 97.9794 137.508 97.9524 137.432C97.9076 137.297 97.8597 137.164 97.8119 137.028C97.7641 136.892 97.7132 136.759 97.6624 136.626C97.5607 136.354 97.4501 136.085 97.3394 135.816C96.9059 134.771 96.4184 133.741 95.9699 132.72C95.7288 132.185 95.5153 131.637 95.33 131.08L95.2732 131.161C95.1822 131.3 95.1013 131.446 95.031 131.596C95.031 133.974 92.6746 136.883 92.6746 136.883L90.3033 133.394L88.2281 136.617C87.929 136.777 87.63 137.327 87.3968 138.109C87.331 138.321 87.2682 138.55 87.2084 138.795C87.1665 138.958 87.1277 139.13 87.0918 139.302C87.0708 139.39 87.0529 139.478 87.035 139.568L86.9811 139.843V139.885C86.9452 140.073 86.9094 140.266 86.8765 140.462C86.8436 140.659 86.8047 140.885 86.7718 141.1C86.7479 141.239 86.727 141.378 86.709 141.517C86.6672 141.785 86.6313 142.057 86.5954 142.326C86.5745 142.483 86.5535 142.628 86.5356 142.794L86.4638 143.399C86.6163 143.894 86.7868 144.383 86.9632 144.864C87.0759 145.127 87.1417 145.408 87.1576 145.694C90.8269 146.754 94.7167 146.754 98.386 145.694C98.3847 145.684 98.3847 145.674 98.386 145.664C98.3308 145.393 98.3067 145.116 98.3143 144.84C98.3746 144.065 98.4745 143.293 98.6133 142.529C98.6574 142.152 98.6764 141.772 98.6701 141.393V141.257C98.6611 141.142 98.6582 141.033 98.6552 140.925Z" fill="white"/>
<path opacity="0.1" d="M90.3452 133.191L90.1448 133.164C89.8423 133.123 89.5427 133.062 89.2477 132.983L89.1371 132.953C88.4075 132.744 87.6091 132.37 87.4296 131.711C87.3762 131.499 87.3824 131.276 87.4476 131.068C87.548 130.708 87.6842 130.36 87.8543 130.028V130.01C87.8767 129.964 87.9017 129.918 87.929 129.874C88.1758 129.387 88.5489 128.977 89.0085 128.687L88.6497 128.745L85.6116 129.243L80.9019 130.01C80.9019 130.01 80.0646 129.841 78.9253 133.013C78.9253 133.052 78.8984 133.089 78.8864 133.131C78.6113 133.907 78.3213 134.877 78.0222 136.088C77.8159 136.928 77.6275 137.753 77.4541 138.553C77.4032 138.795 77.3524 139.034 77.3046 139.269C77.8437 139.911 78.4241 140.517 79.0419 141.082L79.1406 141.175C80.3507 142.282 81.688 143.239 83.1236 144.024L83.1805 144.054C84.0836 144.546 85.0234 144.966 85.9913 145.311L86.2455 145.401C86.2993 144.843 86.3591 144.223 86.4309 143.589C86.4309 143.525 86.4309 143.462 86.4548 143.399L86.5266 142.794C86.5445 142.64 86.5655 142.492 86.5864 142.326C86.6223 142.057 86.6582 141.785 86.7 141.517C86.718 141.378 86.7389 141.239 86.7628 141.1C86.7957 140.885 86.8316 140.671 86.8675 140.462C86.9034 140.254 86.9362 140.073 86.9721 139.885V139.843L87.026 139.568C87.0439 139.478 87.0618 139.39 87.0828 139.302C87.1187 139.13 87.1575 138.958 87.1994 138.795C87.2592 138.55 87.322 138.321 87.3878 138.109C87.627 137.327 87.9051 136.777 88.2191 136.617L90.2943 133.394L90.381 133.258L90.4199 133.197L90.3452 133.191Z" fill="black"/>
<path opacity="0.1" d="M86.5685 111.795C86.2695 112.212 86.2934 112.786 86.1589 113.305C85.8389 114.486 84.571 115.226 84.281 116.417C84.1105 117.111 84.3079 117.848 84.1913 118.555C83.979 119.857 82.8008 120.739 82.1429 121.878C81.8094 122.465 81.6117 123.12 81.5646 123.795C81.5175 124.47 81.6222 125.147 81.8708 125.775C82.0247 126.092 82.1518 126.421 82.2506 126.76C82.326 127.264 82.2944 127.779 82.1579 128.27C81.9336 129.346 81.7034 130.53 82.2177 131.5C82.6513 132.318 83.5514 132.798 84.4574 132.95C85.3723 133.054 86.2979 133.011 87.1995 132.823C88.1893 132.669 89.203 132.49 90.0642 131.977L86.8257 124.08C86.4998 123.283 86.1649 122.458 86.1678 121.594C86.1942 120.957 86.3308 120.329 86.5715 119.739C87.1985 118.031 88.1086 116.442 89.2628 115.042C89.7323 115.592 89.6964 116.429 90.0881 117.039C90.4342 117.49 90.8952 117.838 91.4218 118.045C92.9562 118.801 94.5327 119.467 96.1434 120.039C96.2445 120.051 96.3408 120.089 96.424 120.149C96.5071 120.208 96.5744 120.287 96.62 120.379C96.6655 120.471 96.6879 120.573 96.6851 120.676C96.6823 120.779 96.6544 120.88 96.6039 120.969L95.3839 126.056C95.1147 127.177 94.8785 128.473 95.5693 129.379C96.26 130.285 97.818 130.714 97.8269 131.883C97.8142 132.068 97.8142 132.254 97.8269 132.439C97.9077 132.986 98.5506 133.249 99.0978 133.276C99.9961 133.294 100.872 132.988 101.568 132.415C102.264 131.841 102.736 131.036 102.898 130.143C103.197 128.143 101.888 126.301 101.341 124.352C100.42 121.075 101.64 117.229 99.8304 114.35C98.3652 112.015 95.6949 111.381 93.1591 111.091C91.3799 110.879 87.8215 110.124 86.5685 111.795Z" fill="black"/>
<path opacity="0.5" d="M86.5685 111.493C86.2695 111.91 86.2934 112.483 86.1589 113.003C85.8389 114.184 84.571 114.924 84.281 116.114C84.1105 116.809 84.3079 117.546 84.1913 118.253C83.979 119.555 82.8008 120.437 82.1429 121.576C81.8094 122.163 81.6117 122.818 81.5646 123.493C81.5175 124.168 81.6222 124.845 81.8708 125.473C82.0247 125.79 82.1518 126.119 82.2506 126.458C82.326 126.962 82.2944 127.477 82.1579 127.968C81.9336 129.044 81.7034 130.228 82.2177 131.197C82.6513 132.016 83.5514 132.496 84.4574 132.647C85.3723 132.752 86.2979 132.709 87.1995 132.521C88.1893 132.366 89.203 132.188 90.0642 131.675L86.8257 123.778C86.4998 122.981 86.1649 122.156 86.1678 121.292C86.1942 120.655 86.3308 120.027 86.5715 119.437C87.1985 117.729 88.1086 116.14 89.2628 114.74C89.7323 115.29 89.6964 116.127 90.0881 116.737C90.4342 117.188 90.8952 117.536 91.4218 117.743C92.9562 118.499 94.5327 119.165 96.1434 119.736C96.2445 119.749 96.3408 119.787 96.424 119.847C96.5071 119.906 96.5744 119.985 96.62 120.077C96.6655 120.169 96.6879 120.271 96.6851 120.374C96.6823 120.477 96.6544 120.578 96.6039 120.667L95.3839 125.754C95.1147 126.875 94.8785 128.171 95.5693 129.077C96.26 129.983 97.818 130.412 97.8269 131.581C97.8142 131.766 97.8142 131.952 97.8269 132.137C97.9077 132.684 98.5506 132.946 99.0978 132.974C99.9961 132.992 100.872 132.686 101.568 132.113C102.264 131.539 102.736 130.734 102.898 129.841C103.197 127.841 101.888 125.999 101.341 124.05C100.42 120.773 101.64 116.927 99.8304 114.048C98.3652 111.713 95.6949 111.079 93.1591 110.789C91.3799 110.577 87.8215 109.822 86.5685 111.493Z" fill="#493545"/>
</g>
<g opacity="0.5">
<path opacity="0.5" d="M84.7294 192.405C84.7563 193.417 84.0745 194.281 83.5333 195.124C82.9921 195.967 82.5914 197.118 83.1476 197.961C83.33 198.239 83.6051 198.453 83.7695 198.743C84.3467 199.755 83.3868 200.918 83.0369 202.03C82.6332 203.314 83.1027 204.749 83.9519 205.791C84.8012 206.833 85.9734 207.537 87.1575 208.156C89.6473 209.496 92.3196 210.457 95.0877 211.008C96.535 211.277 98.078 211.397 99.4356 210.811C100.378 210.375 101.147 209.631 101.62 208.7C102.094 207.769 102.244 206.704 102.046 205.676C101.702 204.087 100.551 202.809 99.9529 201.308C99.8133 201.013 99.7456 200.689 99.7555 200.362C99.8064 199.791 100.24 199.344 100.578 198.882C101.425 197.624 101.771 196.088 101.547 194.583C101.311 193.078 100.74 191.647 99.8781 190.397C99.5701 189.878 99.1636 189.427 98.682 189.067C98.0301 188.623 97.2228 188.497 96.4453 188.385C93.1979 187.926 89.8338 187.424 86.5595 187.255C85.5248 187.201 84.7653 187.406 84.254 188.385C83.4735 189.844 84.6905 190.94 84.7294 192.405Z" fill="#444176"/>
<path opacity="0.5" d="M101.454 202.679L95.291 211.533L89.2746 211.005C89.2746 211.005 89.0773 213.119 86.6581 205.455C85.3065 201.169 88.0546 202.658 88.5958 201.471C89.1371 200.284 90.091 199.236 90.1717 198.36C90.3631 196.481 89.7979 195.411 89.7979 195.411L96.3376 194.62C96.0425 195.51 96.0052 196.467 96.23 197.378C97.0493 200.815 101.454 202.679 101.454 202.679Z" fill="#C77485"/>
<path opacity="0.5" d="M92.1841 195.13C96.478 195.13 99.9589 192.358 99.9589 188.938C99.9589 185.517 96.478 182.745 92.1841 182.745C87.8903 182.745 84.4094 185.517 84.4094 188.938C84.4094 192.358 87.8903 195.13 92.1841 195.13Z" fill="#444176"/>
<path opacity="0.1" d="M96.227 197.375C95.3741 198.027 94.3756 198.458 93.3194 198.63C92.2631 198.802 91.1812 198.709 90.1687 198.36C90.3601 196.481 89.7949 195.411 89.7949 195.411L96.3346 194.62C96.0401 195.509 96.0028 196.465 96.227 197.375Z" fill="black"/>
<path opacity="0.5" d="M92.2828 198.45C95.8946 198.45 98.8225 195.492 98.8225 191.844C98.8225 188.195 95.8946 185.237 92.2828 185.237C88.671 185.237 85.743 188.195 85.743 191.844C85.743 195.492 88.671 198.45 92.2828 198.45Z" fill="#C77485"/>
<path opacity="0.1" d="M100.808 203.682L100.656 203.078L100.524 202.546L100.33 201.761L100.294 201.616L100.264 201.495C100.264 201.495 100.419 201.021 99.3937 201.175L99.2024 201.208C99.0409 201.241 98.8525 201.287 98.6372 201.347L98.4428 201.408L98.1857 201.489C97.3715 201.757 96.6289 202.209 96.0147 202.812C95.7391 203.079 95.4952 203.377 95.2881 203.7C95.2672 203.731 95.2522 203.758 95.2343 203.782C95.1635 203.894 95.1005 204.011 95.0459 204.132C95.0459 206.513 92.6895 209.419 92.6895 209.419L90.39 206.063L90.3452 205.996L89.798 205.193L89.6036 204.933L89.5378 204.842L88.3417 203.22L88.0427 202.815L87.944 202.679L87.7975 202.483L87.4536 202.021L86.108 202.815L84.3138 203.873L83.2672 210.745V210.935L83.3001 211.503L83.5184 215.237V215.288L83.1356 216.835L83.1924 216.865C84.0956 217.357 85.0354 217.777 86.0033 218.122L86.2575 218.212C86.5565 218.312 86.8376 218.403 87.1306 218.49C87.1415 218.535 87.1495 218.58 87.1545 218.626C87.1545 218.584 87.1545 218.539 87.1545 218.496C90.8239 219.556 94.7136 219.556 98.383 218.496L98.4518 218.475C98.6223 218.427 98.7957 218.375 98.9631 218.318L99.2353 218.231C99.9731 217.981 100.696 217.689 101.4 217.354L101.651 211.947L101.831 208.047V207.824L100.808 203.682Z" fill="black"/>
<path opacity="0.5" d="M98.6552 213.726C98.6552 213.606 98.6551 213.485 98.6342 213.364C98.6133 213.243 98.6163 213.137 98.6013 213.023C98.5864 212.908 98.5744 212.793 98.5595 212.678C98.5445 212.563 98.5236 212.449 98.5026 212.334C98.4817 212.219 98.4608 212.104 98.4369 211.989C98.4369 211.95 98.4219 211.914 98.4129 211.875C98.38 211.724 98.3442 211.573 98.3053 211.419C98.2664 211.264 98.2425 211.174 98.2066 211.053C98.2066 210.999 98.1767 210.944 98.1588 210.893C98.1408 210.842 98.1079 210.718 98.081 210.63L98.0272 210.461C98.0033 210.385 97.9793 210.31 97.9524 210.234C97.9076 210.098 97.8597 209.966 97.8119 209.83C97.764 209.694 97.7132 209.561 97.6624 209.428C97.5607 209.156 97.4501 208.887 97.3394 208.618C96.9058 207.573 96.4184 206.543 95.9699 205.522C95.7288 204.987 95.5152 204.439 95.33 203.882L95.2732 203.963C95.1822 204.102 95.1013 204.247 95.0309 204.398C95.0309 206.776 92.6746 209.685 92.6746 209.685L90.3033 206.196L88.2281 209.419C87.929 209.579 87.63 210.129 87.3968 210.911C87.331 211.122 87.2682 211.352 87.2084 211.597C87.1665 211.76 87.1276 211.932 87.0918 212.104C87.0708 212.192 87.0529 212.279 87.0349 212.37L86.9811 212.645V212.687C86.9452 212.875 86.9094 213.068 86.8765 213.264C86.8436 213.461 86.8047 213.687 86.7718 213.902C86.7479 214.041 86.727 214.18 86.709 214.319C86.6671 214.587 86.6313 214.859 86.5954 215.128C86.5744 215.285 86.5535 215.43 86.5356 215.596L86.4638 216.201C86.6163 216.696 86.7868 217.185 86.9632 217.666C87.0759 217.929 87.1417 218.21 87.1576 218.496C90.8269 219.556 94.7166 219.556 98.386 218.496C98.3847 218.486 98.3847 218.476 98.386 218.466C98.3308 218.195 98.3067 217.918 98.3143 217.641C98.3746 216.866 98.4744 216.095 98.6133 215.331C98.6574 214.954 98.6764 214.574 98.6701 214.195V214.059C98.6611 213.944 98.6581 213.835 98.6552 213.726ZM98.6552 213.726C98.6552 213.606 98.6551 213.485 98.6342 213.364C98.6133 213.243 98.6163 213.137 98.6013 213.023C98.5864 212.908 98.5744 212.793 98.5595 212.678C98.5445 212.563 98.5236 212.449 98.5026 212.334C98.4817 212.219 98.4608 212.104 98.4369 211.989C98.4369 211.95 98.4219 211.914 98.4129 211.875C98.38 211.724 98.3442 211.573 98.3053 211.419C98.2664 211.264 98.2425 211.174 98.2066 211.053C98.2066 210.999 98.1767 210.944 98.1588 210.893C98.1408 210.842 98.1079 210.718 98.081 210.63L98.0272 210.461C98.0033 210.385 97.9793 210.31 97.9524 210.234C97.9076 210.098 97.8597 209.966 97.8119 209.83C97.764 209.694 97.7132 209.561 97.6624 209.428C97.5607 209.156 97.4501 208.887 97.3394 208.618C96.9058 207.573 96.4184 206.543 95.9699 205.522C95.7288 204.987 95.5152 204.439 95.33 203.882L95.2732 203.963C95.1822 204.102 95.1013 204.247 95.0309 204.398C95.0309 206.776 92.6746 209.685 92.6746 209.685L90.3033 206.196L88.2281 209.419C87.929 209.579 87.63 210.129 87.3968 210.911C87.331 211.122 87.2682 211.352 87.2084 211.597C87.1665 211.76 87.1276 211.932 87.0918 212.104C87.0708 212.192 87.0529 212.279 87.0349 212.37L86.9811 212.645V212.687C86.9452 212.875 86.9094 213.068 86.8765 213.264C86.8436 213.461 86.8047 213.687 86.7718 213.902C86.7479 214.041 86.727 214.18 86.709 214.319C86.6671 214.587 86.6313 214.859 86.5954 215.128C86.5744 215.285 86.5535 215.43 86.5356 215.596L86.4638 216.201C86.6163 216.696 86.7868 217.185 86.9632 217.666C87.0759 217.929 87.1417 218.21 87.1576 218.496C90.8269 219.556 94.7166 219.556 98.386 218.496C98.3847 218.486 98.3847 218.476 98.386 218.466C98.3308 218.195 98.3067 217.918 98.3143 217.641C98.3746 216.866 98.4744 216.095 98.6133 215.331C98.6574 214.954 98.6764 214.574 98.6701 214.195V214.059C98.6611 213.944 98.6581 213.835 98.6552 213.726ZM98.6552 213.726C98.6552 213.606 98.6551 213.485 98.6342 213.364C98.6133 213.243 98.6163 213.137 98.6013 213.023C98.5864 212.908 98.5744 212.793 98.5595 212.678C98.5445 212.563 98.5236 212.449 98.5026 212.334C98.4817 212.219 98.4608 212.104 98.4369 211.989C98.4369 211.95 98.4219 211.914 98.4129 211.875C98.38 211.724 98.3442 211.573 98.3053 211.419C98.2664 211.264 98.2425 211.174 98.2066 211.053C98.2066 210.999 98.1767 210.944 98.1588 210.893C98.1408 210.842 98.1079 210.718 98.081 210.63L98.0272 210.461C98.0033 210.385 97.9793 210.31 97.9524 210.234C97.9076 210.098 97.8597 209.966 97.8119 209.83C97.764 209.694 97.7132 209.561 97.6624 209.428C97.5607 209.156 97.4501 208.887 97.3394 208.618C96.9058 207.573 96.4184 206.543 95.9699 205.522C95.7288 204.987 95.5152 204.439 95.33 203.882L95.2732 203.963C95.1822 204.102 95.1013 204.247 95.0309 204.398C95.0309 206.776 92.6746 209.685 92.6746 209.685L90.3033 206.196L88.2281 209.419C87.929 209.579 87.63 210.129 87.3968 210.911C87.331 211.122 87.2682 211.352 87.2084 211.597C87.1665 211.76 87.1276 211.932 87.0918 212.104C87.0708 212.192 87.0529 212.279 87.0349 212.37L86.9811 212.645V212.687C86.9452 212.875 86.9094 213.068 86.8765 213.264C86.8436 213.461 86.8047 213.687 86.7718 213.902C86.7479 214.041 86.727 214.18 86.709 214.319C86.6671 214.587 86.6313 214.859 86.5954 215.128C86.5744 215.285 86.5535 215.43 86.5356 215.596L86.4638 216.201C86.6163 216.696 86.7868 217.185 86.9632 217.666C87.0759 217.929 87.1417 218.21 87.1576 218.496C90.8269 219.556 94.7166 219.556 98.386 218.496C98.3847 218.486 98.3847 218.476 98.386 218.466C98.3308 218.195 98.3067 217.918 98.3143 217.641C98.3746 216.866 98.4744 216.095 98.6133 215.331C98.6574 214.954 98.6764 214.574 98.6701 214.195V214.059C98.6611 213.944 98.6581 213.835 98.6552 213.726ZM101.825 208.056L100.757 203.752L100.575 203.015L100.524 202.812L100.264 201.761C100.265 201.752 100.265 201.743 100.264 201.734C100.27 201.687 100.263 201.64 100.243 201.598C100.204 201.519 100.105 201.438 99.8752 201.417C99.7876 201.41 99.6996 201.41 99.612 201.417C99.3522 201.443 99.0951 201.491 98.8435 201.562C98.7209 201.595 98.5894 201.631 98.4488 201.676L98.1917 201.758H98.1677C97.479 201.986 96.8396 202.345 96.2839 202.815C95.9167 203.124 95.5946 203.484 95.327 203.885L95.2702 203.966C95.1792 204.105 95.0983 204.25 95.0279 204.401C95.0279 206.779 92.6716 209.688 92.6716 209.688L90.3003 206.199L90.1658 206.002L90.1418 205.969L89.798 205.458L89.5378 205.108L89.469 205.017L88.243 203.365L87.8543 202.83V202.812L87.7197 202.628L87.4626 202.284L86.5655 202.812L84.3228 204.132L83.2881 210.932V211.005L83.318 211.5L83.5393 215.285V215.5L83.2014 216.862C84.1046 217.354 85.0444 217.774 86.0123 218.119L86.2664 218.209C86.5655 218.309 86.8466 218.4 87.1396 218.487C87.1505 218.532 87.1585 218.577 87.1635 218.623C87.1635 218.581 87.1635 218.536 87.1635 218.493C90.8329 219.553 94.7226 219.553 98.392 218.493L98.4608 218.472C98.6312 218.424 98.8047 218.372 98.9721 218.315L99.2442 218.227C99.9821 217.978 100.705 217.686 101.409 217.351L101.657 211.95L101.837 208.093L101.825 208.056ZM87.1187 218.487C87.1295 218.532 87.1375 218.577 87.1426 218.623C87.1426 218.581 87.1426 218.536 87.1426 218.493L87.1187 218.487ZM98.6552 213.726C98.6552 213.606 98.6551 213.485 98.6342 213.364C98.6133 213.243 98.6163 213.137 98.6013 213.023C98.5864 212.908 98.5744 212.793 98.5595 212.678C98.5445 212.563 98.5236 212.449 98.5026 212.334C98.4817 212.219 98.4608 212.104 98.4369 211.989C98.4369 211.95 98.4219 211.914 98.4129 211.875C98.38 211.724 98.3442 211.573 98.3053 211.419C98.2664 211.264 98.2425 211.174 98.2066 211.053C98.2066 210.999 98.1767 210.944 98.1588 210.893C98.1408 210.842 98.1079 210.718 98.081 210.63L98.0272 210.461C98.0033 210.385 97.9793 210.31 97.9524 210.234C97.9076 210.098 97.8597 209.966 97.8119 209.83C97.764 209.694 97.7132 209.561 97.6624 209.428C97.5607 209.156 97.4501 208.887 97.3394 208.618C96.9058 207.573 96.4184 206.543 95.9699 205.522C95.7288 204.987 95.5152 204.439 95.33 203.882L95.2732 203.963C95.1822 204.102 95.1013 204.247 95.0309 204.398C95.0309 206.776 92.6746 209.685 92.6746 209.685L90.3033 206.196L88.2281 209.419C87.929 209.579 87.63 210.129 87.3968 210.911C87.331 211.122 87.2682 211.352 87.2084 211.597C87.1665 211.76 87.1276 211.932 87.0918 212.104C87.0708 212.192 87.0529 212.279 87.0349 212.37L86.9811 212.645V212.687C86.9452 212.875 86.9094 213.068 86.8765 213.264C86.8436 213.461 86.8047 213.687 86.7718 213.902C86.7479 214.041 86.727 214.18 86.709 214.319C86.6671 214.587 86.6313 214.859 86.5954 215.128C86.5744 215.285 86.5535 215.43 86.5356 215.596L86.4638 216.201C86.6163 216.696 86.7868 217.185 86.9632 217.666C87.0759 217.929 87.1417 218.21 87.1576 218.496C90.8269 219.556 94.7166 219.556 98.386 218.496C98.3847 218.486 98.3847 218.476 98.386 218.466C98.3308 218.195 98.3067 217.918 98.3143 217.641C98.3746 216.866 98.4744 216.095 98.6133 215.331C98.6574 214.954 98.6764 214.574 98.6701 214.195V214.059C98.6611 213.944 98.6581 213.835 98.6552 213.726ZM98.6552 213.726C98.6552 213.606 98.6551 213.485 98.6342 213.364C98.6133 213.243 98.6163 213.137 98.6013 213.023C98.5864 212.908 98.5744 212.793 98.5595 212.678C98.5445 212.563 98.5236 212.449 98.5026 212.334C98.4817 212.219 98.4608 212.104 98.4369 211.989C98.4369 211.95 98.4219 211.914 98.4129 211.875C98.38 211.724 98.3442 211.573 98.3053 211.419C98.2664 211.264 98.2425 211.174 98.2066 211.053C98.2066 210.999 98.1767 210.944 98.1588 210.893C98.1408 210.842 98.1079 210.718 98.081 210.63L98.0272 210.461C98.0033 210.385 97.9793 210.31 97.9524 210.234C97.9076 210.098 97.8597 209.966 97.8119 209.83C97.764 209.694 97.7132 209.561 97.6624 209.428C97.5607 209.156 97.4501 208.887 97.3394 208.618C96.9058 207.573 96.4184 206.543 95.9699 205.522C95.7288 204.987 95.5152 204.439 95.33 203.882L95.2732 203.963C95.1822 204.102 95.1013 204.247 95.0309 204.398C95.0309 206.776 92.6746 209.685 92.6746 209.685L90.3033 206.196L88.2281 209.419C87.929 209.579 87.63 210.129 87.3968 210.911C87.331 211.122 87.2682 211.352 87.2084 211.597C87.1665 211.76 87.1276 211.932 87.0918 212.104C87.0708 212.192 87.0529 212.279 87.0349 212.37L86.9811 212.645V212.687C86.9452 212.875 86.9094 213.068 86.8765 213.264C86.8436 213.461 86.8047 213.687 86.7718 213.902C86.7479 214.041 86.727 214.18 86.709 214.319C86.6671 214.587 86.6313 214.859 86.5954 215.128C86.5744 215.285 86.5535 215.43 86.5356 215.596L86.4638 216.201C86.6163 216.696 86.7868 217.185 86.9632 217.666C87.0759 217.929 87.1417 218.21 87.1576 218.496C90.8269 219.556 94.7166 219.556 98.386 218.496C98.3847 218.486 98.3847 218.476 98.386 218.466C98.3308 218.195 98.3067 217.918 98.3143 217.641C98.3746 216.866 98.4744 216.095 98.6133 215.331C98.6574 214.954 98.6764 214.574 98.6701 214.195V214.059C98.6611 213.944 98.6581 213.835 98.6552 213.726ZM98.6552 213.726C98.6552 213.606 98.6551 213.485 98.6342 213.364C98.6133 213.243 98.6163 213.137 98.6013 213.023C98.5864 212.908 98.5744 212.793 98.5595 212.678C98.5445 212.563 98.5236 212.449 98.5026 212.334C98.4817 212.219 98.4608 212.104 98.4369 211.989C98.4369 211.95 98.4219 211.914 98.4129 211.875C98.38 211.724 98.3442 211.573 98.3053 211.419C98.2664 211.264 98.2425 211.174 98.2066 211.053C98.2066 210.999 98.1767 210.944 98.1588 210.893C98.1408 210.842 98.1079 210.718 98.081 210.63L98.0272 210.461C98.0033 210.385 97.9793 210.31 97.9524 210.234C97.9076 210.098 97.8597 209.966 97.8119 209.83C97.764 209.694 97.7132 209.561 97.6624 209.428C97.5607 209.156 97.4501 208.887 97.3394 208.618C96.9058 207.573 96.4184 206.543 95.9699 205.522C95.7288 204.987 95.5152 204.439 95.33 203.882L95.2732 203.963C95.1822 204.102 95.1013 204.247 95.0309 204.398C95.0309 206.776 92.6746 209.685 92.6746 209.685L90.3033 206.196L88.2281 209.419C87.929 209.579 87.63 210.129 87.3968 210.911C87.331 211.122 87.2682 211.352 87.2084 211.597C87.1665 211.76 87.1276 211.932 87.0918 212.104C87.0708 212.192 87.0529 212.279 87.0349 212.37L86.9811 212.645V212.687C86.9452 212.875 86.9094 213.068 86.8765 213.264C86.8436 213.461 86.8047 213.687 86.7718 213.902C86.7479 214.041 86.727 214.18 86.709 214.319C86.6671 214.587 86.6313 214.859 86.5954 215.128C86.5744 215.285 86.5535 215.43 86.5356 215.596L86.4638 216.201C86.6163 216.696 86.7868 217.185 86.9632 217.666C87.0759 217.929 87.1417 218.21 87.1576 218.496C90.8269 219.556 94.7166 219.556 98.386 218.496C98.3847 218.486 98.3847 218.476 98.386 218.466C98.3308 218.195 98.3067 217.918 98.3143 217.641C98.3746 216.866 98.4744 216.095 98.6133 215.331C98.6574 214.954 98.6764 214.574 98.6701 214.195V214.059C98.6611 213.944 98.6581 213.835 98.6552 213.726ZM98.6552 213.726C98.6552 213.606 98.6551 213.485 98.6342 213.364C98.6133 213.243 98.6163 213.137 98.6013 213.023C98.5864 212.908 98.5744 212.793 98.5595 212.678C98.5445 212.563 98.5236 212.449 98.5026 212.334C98.4817 212.219 98.4608 212.104 98.4369 211.989C98.4369 211.95 98.4219 211.914 98.4129 211.875C98.38 211.724 98.3442 211.573 98.3053 211.419C98.2664 211.264 98.2425 211.174 98.2066 211.053C98.2066 210.999 98.1767 210.944 98.1588 210.893C98.1408 210.842 98.1079 210.718 98.081 210.63L98.0272 210.461C98.0033 210.385 97.9793 210.31 97.9524 210.234C97.9076 210.098 97.8597 209.966 97.8119 209.83C97.764 209.694 97.7132 209.561 97.6624 209.428C97.5607 209.156 97.4501 208.887 97.3394 208.618C96.9058 207.573 96.4184 206.543 95.9699 205.522C95.7288 204.987 95.5152 204.439 95.33 203.882L95.2732 203.963C95.1822 204.102 95.1013 204.247 95.0309 204.398C95.0309 206.776 92.6746 209.685 92.6746 209.685L90.3033 206.196L88.2281 209.419C87.929 209.579 87.63 210.129 87.3968 210.911C87.331 211.122 87.2682 211.352 87.2084 211.597C87.1665 211.76 87.1276 211.932 87.0918 212.104C87.0708 212.192 87.0529 212.279 87.0349 212.37L86.9811 212.645V212.687C86.9452 212.875 86.9094 213.068 86.8765 213.264C86.8436 213.461 86.8047 213.687 86.7718 213.902C86.7479 214.041 86.727 214.18 86.709 214.319C86.6671 214.587 86.6313 214.859 86.5954 215.128C86.5744 215.285 86.5535 215.43 86.5356 215.596L86.4638 216.201C86.6163 216.696 86.7868 217.185 86.9632 217.666C87.0759 217.929 87.1417 218.21 87.1576 218.496C90.8269 219.556 94.7166 219.556 98.386 218.496C98.3847 218.486 98.3847 218.476 98.386 218.466C98.3308 218.195 98.3067 217.918 98.3143 217.641C98.3746 216.866 98.4744 216.095 98.6133 215.331C98.6574 214.954 98.6764 214.574 98.6701 214.195V214.059C98.6611 213.944 98.6581 213.835 98.6552 213.726ZM98.6552 213.726C98.6552 213.606 98.6551 213.485 98.6342 213.364C98.6133 213.243 98.6163 213.137 98.6013 213.023C98.5864 212.908 98.5744 212.793 98.5595 212.678C98.5445 212.563 98.5236 212.449 98.5026 212.334C98.4817 212.219 98.4608 212.104 98.4369 211.989C98.4369 211.95 98.4219 211.914 98.4129 211.875C98.38 211.724 98.3442 211.573 98.3053 211.419C98.2664 211.264 98.2425 211.174 98.2066 211.053C98.2066 210.999 98.1767 210.944 98.1588 210.893C98.1408 210.842 98.1079 210.718 98.081 210.63L98.0272 210.461C98.0033 210.385 97.9793 210.31 97.9524 210.234C97.9076 210.098 97.8597 209.966 97.8119 209.83C97.764 209.694 97.7132 209.561 97.6624 209.428C97.5607 209.156 97.4501 208.887 97.3394 208.618C96.9058 207.573 96.4184 206.543 95.9699 205.522C95.7288 204.987 95.5152 204.439 95.33 203.882L95.2732 203.963C95.1822 204.102 95.1013 204.247 95.0309 204.398C95.0309 206.776 92.6746 209.685 92.6746 209.685L90.3033 206.196L88.2281 209.419C87.929 209.579 87.63 210.129 87.3968 210.911C87.331 211.122 87.2682 211.352 87.2084 211.597C87.1665 211.76 87.1276 211.932 87.0918 212.104C87.0708 212.192 87.0529 212.279 87.0349 212.37L86.9811 212.645V212.687C86.9452 212.875 86.9094 213.068 86.8765 213.264C86.8436 213.461 86.8047 213.687 86.7718 213.902C86.7479 214.041 86.727 214.18 86.709 214.319C86.6671 214.587 86.6313 214.859 86.5954 215.128C86.5744 215.285 86.5535 215.43 86.5356 215.596L86.4638 216.201C86.6163 216.696 86.7868 217.185 86.9632 217.666C87.0759 217.929 87.1417 218.21 87.1576 218.496C90.8269 219.556 94.7166 219.556 98.386 218.496C98.3847 218.486 98.3847 218.476 98.386 218.466C98.3308 218.195 98.3067 217.918 98.3143 217.641C98.3746 216.866 98.4744 216.095 98.6133 215.331C98.6574 214.954 98.6764 214.574 98.6701 214.195V214.059C98.6611 213.944 98.6581 213.835 98.6552 213.726ZM98.6552 213.726C98.6552 213.606 98.6551 213.485 98.6342 213.364C98.6133 213.243 98.6163 213.137 98.6013 213.023C98.5864 212.908 98.5744 212.793 98.5595 212.678C98.5445 212.563 98.5236 212.449 98.5026 212.334C98.4817 212.219 98.4608 212.104 98.4369 211.989C98.4369 211.95 98.4219 211.914 98.4129 211.875C98.38 211.724 98.3442 211.573 98.3053 211.419C98.2664 211.264 98.2425 211.174 98.2066 211.053C98.2066 210.999 98.1767 210.944 98.1588 210.893C98.1408 210.842 98.1079 210.718 98.081 210.63L98.0272 210.461C98.0033 210.385 97.9793 210.31 97.9524 210.234C97.9076 210.098 97.8597 209.966 97.8119 209.83C97.764 209.694 97.7132 209.561 97.6624 209.428C97.5607 209.156 97.4501 208.887 97.3394 208.618C96.9058 207.573 96.4184 206.543 95.9699 205.522C95.7288 204.987 95.5152 204.439 95.33 203.882L95.2732 203.963C95.1822 204.102 95.1013 204.247 95.0309 204.398C95.0309 206.776 92.6746 209.685 92.6746 209.685L90.3033 206.196L88.2281 209.419C87.929 209.579 87.63 210.129 87.3968 210.911C87.331 211.122 87.2682 211.352 87.2084 211.597C87.1665 211.76 87.1276 211.932 87.0918 212.104C87.0708 212.192 87.0529 212.279 87.0349 212.37L86.9811 212.645V212.687C86.9452 212.875 86.9094 213.068 86.8765 213.264C86.8436 213.461 86.8047 213.687 86.7718 213.902C86.7479 214.041 86.727 214.18 86.709 214.319C86.6671 214.587 86.6313 214.859 86.5954 215.128C86.5744 215.285 86.5535 215.43 86.5356 215.596L86.4638 216.201C86.6163 216.696 86.7868 217.185 86.9632 217.666C87.0759 217.929 87.1417 218.21 87.1576 218.496C90.8269 219.556 94.7166 219.556 98.386 218.496C98.3847 218.486 98.3847 218.476 98.386 218.466C98.3308 218.195 98.3067 217.918 98.3143 217.641C98.3746 216.866 98.4744 216.095 98.6133 215.331C98.6574 214.954 98.6764 214.574 98.6701 214.195V214.059C98.6611 213.944 98.6581 213.835 98.6552 213.726ZM98.6552 213.726C98.6552 213.606 98.6551 213.485 98.6342 213.364C98.6133 213.243 98.6163 213.137 98.6013 213.023C98.5864 212.908 98.5744 212.793 98.5595 212.678C98.5445 212.563 98.5236 212.449 98.5026 212.334C98.4817 212.219 98.4608 212.104 98.4369 211.989C98.4369 211.95 98.4219 211.914 98.4129 211.875C98.38 211.724 98.3442 211.573 98.3053 211.419C98.2664 211.264 98.2425 211.174 98.2066 211.053C98.2066 210.999 98.1767 210.944 98.1588 210.893C98.1408 210.842 98.1079 210.718 98.081 210.63L98.0272 210.461C98.0033 210.385 97.9793 210.31 97.9524 210.234C97.9076 210.098 97.8597 209.966 97.8119 209.83C97.764 209.694 97.7132 209.561 97.6624 209.428C97.5607 209.156 97.4501 208.887 97.3394 208.618C96.9058 207.573 96.4184 206.543 95.9699 205.522C95.7288 204.987 95.5152 204.439 95.33 203.882L95.2732 203.963C95.1822 204.102 95.1013 204.247 95.0309 204.398C95.0309 206.776 92.6746 209.685 92.6746 209.685L90.3033 206.196L88.2281 209.419C87.929 209.579 87.63 210.129 87.3968 210.911C87.331 211.122 87.2682 211.352 87.2084 211.597C87.1665 211.76 87.1276 211.932 87.0918 212.104C87.0708 212.192 87.0529 212.279 87.0349 212.37L86.9811 212.645V212.687C86.9452 212.875 86.9094 213.068 86.8765 213.264C86.8436 213.461 86.8047 213.687 86.7718 213.902C86.7479 214.041 86.727 214.18 86.709 214.319C86.6671 214.587 86.6313 214.859 86.5954 215.128C86.5744 215.285 86.5535 215.43 86.5356 215.596L86.4638 216.201C86.6163 216.696 86.7868 217.185 86.9632 217.666C87.0759 217.929 87.1417 218.21 87.1576 218.496C90.8269 219.556 94.7166 219.556 98.386 218.496C98.3847 218.486 98.3847 218.476 98.386 218.466C98.3308 218.195 98.3067 217.918 98.3143 217.641C98.3746 216.866 98.4744 216.095 98.6133 215.331C98.6574 214.954 98.6764 214.574 98.6701 214.195V214.059C98.6611 213.944 98.6581 213.835 98.6552 213.726ZM98.6552 213.726C98.6552 213.606 98.6551 213.485 98.6342 213.364C98.6133 213.243 98.6163 213.137 98.6013 213.023C98.5864 212.908 98.5744 212.793 98.5595 212.678C98.5445 212.563 98.5236 212.449 98.5026 212.334C98.4817 212.219 98.4608 212.104 98.4369 211.989C98.4369 211.95 98.4219 211.914 98.4129 211.875C98.38 211.724 98.3442 211.573 98.3053 211.419C98.2664 211.264 98.2425 211.174 98.2066 211.053C98.2066 210.999 98.1767 210.944 98.1588 210.893C98.1408 210.842 98.1079 210.718 98.081 210.63L98.0272 210.461C98.0033 210.385 97.9793 210.31 97.9524 210.234C97.9076 210.098 97.8597 209.966 97.8119 209.83C97.764 209.694 97.7132 209.561 97.6624 209.428C97.5607 209.156 97.4501 208.887 97.3394 208.618C96.9058 207.573 96.4184 206.543 95.9699 205.522C95.7288 204.987 95.5152 204.439 95.33 203.882L95.2732 203.963C95.1822 204.102 95.1013 204.247 95.0309 204.398C95.0309 206.776 92.6746 209.685 92.6746 209.685L90.3033 206.196L88.2281 209.419C87.929 209.579 87.63 210.129 87.3968 210.911C87.331 211.122 87.2682 211.352 87.2084 211.597C87.1665 211.76 87.1276 211.932 87.0918 212.104C87.0708 212.192 87.0529 212.279 87.0349 212.37L86.9811 212.645V212.687C86.9452 212.875 86.9094 213.068 86.8765 213.264C86.8436 213.461 86.8047 213.687 86.7718 213.902C86.7479 214.041 86.727 214.18 86.709 214.319C86.6671 214.587 86.6313 214.859 86.5954 215.128C86.5744 215.285 86.5535 215.43 86.5356 215.596L86.4638 216.201C86.6163 216.696 86.7868 217.185 86.9632 217.666C87.0759 217.929 87.1417 218.21 87.1576 218.496C90.8269 219.556 94.7166 219.556 98.386 218.496C98.3847 218.486 98.3847 218.476 98.386 218.466C98.3308 218.195 98.3067 217.918 98.3143 217.641C98.3746 216.866 98.4744 216.095 98.6133 215.331C98.6574 214.954 98.6764 214.574 98.6701 214.195V214.059C98.6611 213.944 98.6581 213.835 98.6552 213.726Z" fill="#444176"/>
<path opacity="0.1" d="M90.3452 205.993L90.1448 205.966C89.8423 205.925 89.5427 205.864 89.2477 205.785L89.1371 205.754C88.4075 205.546 87.6091 205.171 87.4296 204.513C87.3762 204.301 87.3824 204.078 87.4476 203.869C87.548 203.51 87.6842 203.162 87.8543 202.83V202.812C87.8767 202.766 87.9017 202.72 87.929 202.676C88.1758 202.189 88.5489 201.779 89.0085 201.489L88.6497 201.546L85.6116 202.045L80.9019 202.812C80.9019 202.812 80.0646 202.643 78.9253 205.815C78.9253 205.854 78.8984 205.89 78.8864 205.933C78.6113 206.709 78.3213 207.679 78.0222 208.89C77.8159 209.73 77.6275 210.555 77.4541 211.355C77.4032 211.597 77.3524 211.835 77.3046 212.071C77.8437 212.713 78.4241 213.319 79.0419 213.884L79.1406 213.977C80.3507 215.084 81.688 216.041 83.1236 216.826L83.1805 216.856C84.0836 217.348 85.0234 217.768 85.9913 218.113L86.2455 218.203C86.2993 217.644 86.3591 217.025 86.4309 216.391C86.4309 216.327 86.4309 216.264 86.4548 216.2L86.5266 215.596C86.5445 215.442 86.5655 215.294 86.5864 215.128C86.6223 214.859 86.6582 214.587 86.7 214.319C86.718 214.18 86.7389 214.041 86.7628 213.902C86.7957 213.687 86.8316 213.473 86.8675 213.264C86.9034 213.056 86.9362 212.875 86.9721 212.687V212.645L87.026 212.37C87.0439 212.279 87.0618 212.192 87.0828 212.104C87.1187 211.932 87.1575 211.76 87.1994 211.597C87.2592 211.352 87.322 211.122 87.3878 210.911C87.627 210.129 87.9051 209.579 88.2191 209.419L90.2943 206.196L90.381 206.06L90.4199 205.999L90.3452 205.993Z" fill="black"/>
<path opacity="0.1" d="M90.8446 189.91C91.7775 189.75 92.7165 189.406 93.6434 189.608C94.4209 189.771 95.0698 190.294 95.7815 190.656C96.4686 191.006 97.2202 191.206 97.9883 191.245C98.2685 191.283 98.553 191.226 98.7987 191.085C99.1695 190.826 99.2233 190.294 99.1605 189.841C98.9811 188.554 98.1857 187.448 97.3663 186.445C97.0393 186.017 96.6618 185.63 96.242 185.294C95.1685 184.494 93.7481 184.358 92.4174 184.418C90.8984 184.488 89.3554 184.784 88.0367 185.554C87.1396 186.074 85.0823 187.711 85.797 188.895C86.5475 190.134 89.6694 190.113 90.8446 189.91Z" fill="black"/>
<path opacity="0.5" d="M90.8446 189.608C91.7775 189.448 92.7165 189.104 93.6434 189.306C94.4209 189.469 95.0698 189.992 95.7815 190.354C96.4686 190.703 97.2202 190.904 97.9883 190.943C98.2685 190.981 98.553 190.924 98.7987 190.783C99.1695 190.523 99.2233 189.992 99.1605 189.539C98.9811 188.252 98.1857 187.146 97.3663 186.143C97.0393 185.715 96.6618 185.328 96.242 184.992C95.1685 184.192 93.7481 184.056 92.4174 184.116C90.8984 184.186 89.3554 184.482 88.0367 185.252C87.1396 185.772 85.0823 187.409 85.797 188.593C86.5475 189.832 89.6694 189.811 90.8446 189.608Z" fill="#444176"/>
</g>
<path d="M172.961 174.815H173.005C173.071 176.839 173.355 178.67 173.902 179.177C175.206 180.386 180.613 177.969 180.242 176.507C180.167 176.205 180.041 175.709 179.883 175.084C181.342 174.9 182.589 174.48 183.086 173.616L184.025 176.54L184.09 176.749H184.108H184.162C184.781 182.675 186.184 194.982 187.305 196.632C188.8 198.816 190.519 208.28 190.519 208.28L193.734 227.695C193.734 227.695 194.972 238.872 195.714 240.08C195.929 240.311 196.216 240.461 196.527 240.506C196.093 241.817 195.471 243.349 194.733 244.204C193.238 245.901 191.27 249.3 189.539 249.058C187.807 248.816 187.314 252.456 190.528 252.94C192.308 253.209 195.145 252.882 197.325 252.538C197.325 253.511 197.995 254.628 199.679 254.882C202.893 255.368 209.57 253.912 209.57 253.912C209.57 253.912 215.252 251.496 215.506 249.786C215.686 248.547 214.815 243.575 214.331 240.968C215.228 239.515 214.271 226.976 214.271 226.976L212.54 202.951C212.54 202.951 213.53 189.605 212.54 187.176C211.921 185.666 211.691 178.718 211.604 173.749L212.8 173.827C212.868 173.744 212.93 173.657 212.985 173.565L213.284 173.586C213.284 173.586 214.78 171.888 213.533 169.218C212.615 167.233 212.788 158.273 212.935 153.811L213.111 151.697C213.177 151.633 213.227 151.554 213.257 151.467C215.577 151.151 217.831 150.461 219.935 149.425C220.569 149.159 221.16 148.796 221.687 148.35C222.925 147.141 222.18 139.855 219.708 128.935C217.235 118.015 215.01 118.984 215.01 118.984C215.01 118.984 209.074 118.498 206.353 114.858C203.632 111.218 201.805 111.266 201.805 111.266C201.736 110.789 201.688 110.339 201.655 109.919C201.655 109.762 201.631 109.617 201.622 109.46C202.547 108.591 203.253 107.51 203.68 106.309C204.236 106.007 204.921 105.907 205.453 105.527C205.589 105.427 205.712 105.311 205.821 105.182C206.354 104.685 206.693 104.011 206.775 103.282C206.859 102.487 206.822 101.683 206.664 100.899C206.476 99.7386 206.197 98.5514 205.528 97.6391C204.858 96.7268 203.856 96.1771 202.89 95.6665C200.275 94.279 197.652 92.9055 195.023 91.5461C194.509 91.229 193.936 91.0233 193.339 90.942C192.287 90.8815 191.342 91.6096 190.493 92.3013C190.154 92.5707 189.829 92.8581 189.521 93.1623C189.258 93.3973 189.019 93.6572 188.806 93.9386C187.813 95.2829 187.392 97.8143 187.828 99.4939C187.966 100.026 188.262 100.18 188.627 100.174C188.085 101.261 187.804 102.461 187.804 103.678C187.81 105.01 188.148 106.32 188.786 107.486C189.424 108.652 190.342 109.637 191.455 110.351C191.455 110.52 191.455 110.686 191.47 110.846C191.483 111.466 191.463 112.086 191.411 112.704C191.411 112.704 184.832 116.296 184.093 117.993C183.355 119.691 180.631 120.906 180.631 120.906C180.631 120.906 175.436 123.576 175.436 133.04L172.715 146.386L172.222 171.867C172.222 171.867 172.563 171.565 173.119 171.136C173.101 171.305 173.086 171.48 173.071 171.658C172.997 172.632 172.972 173.609 172.996 174.586L172.961 174.815ZM206.182 240.763C206.081 241.152 205.931 241.669 205.743 242.273C205.659 241.772 205.575 241.276 205.492 240.805C205.707 240.784 205.937 240.772 206.182 240.763Z" fill="url(#paint2_linear)"/>
<path d="M197.2 237.633C197.2 237.633 196.246 241.965 194.807 243.648C193.369 245.33 191.485 248.702 189.823 248.46C188.16 248.218 187.679 251.828 190.777 252.308C193.875 252.789 200.289 251.348 200.289 251.348C200.289 251.348 205.767 248.931 206.003 247.258C206.239 245.584 204.574 236.911 204.574 236.911L197.2 237.633Z" fill="#53526B"/>
<path opacity="0.05" d="M197.2 237.633C197.2 237.633 196.246 241.965 194.807 243.648C193.369 245.33 191.485 248.702 189.823 248.46C188.16 248.218 187.679 251.828 190.777 252.308C193.875 252.789 200.289 251.348 200.289 251.348C200.289 251.348 205.767 248.931 206.003 247.258C206.239 245.584 204.574 236.911 204.574 236.911L197.2 237.633Z" fill="black"/>
<path d="M206.012 239.558C206.012 239.558 205.058 243.889 203.62 245.572C202.181 247.255 200.289 250.626 198.629 250.384C196.969 250.142 196.485 253.752 199.583 254.233C202.681 254.713 209.11 253.269 209.11 253.269C209.11 253.269 214.588 250.852 214.824 249.179C215.061 247.505 213.395 238.833 213.395 238.833L206.012 239.558Z" fill="#53526B"/>
<path d="M184.339 173.64C184.339 173.64 186.243 194.33 187.673 196.496C189.102 198.662 190.768 208.044 190.768 208.044L193.863 227.29C193.863 227.29 195.059 238.358 195.767 239.561C196.476 240.763 205.315 240.246 205.315 240.246L199.819 176.525L184.339 173.64Z" fill="#5F5D7E"/>
<path opacity="0.05" d="M184.339 173.64C184.339 173.64 186.243 194.33 187.673 196.496C189.102 198.662 190.768 208.044 190.768 208.044L193.863 227.29C193.863 227.29 195.059 238.358 195.767 239.561C196.476 240.763 205.315 240.246 205.315 240.246L199.819 176.525L184.339 173.64Z" fill="black"/>
<path d="M180.529 163.771L181.151 165.768L184.515 176.555L184.581 176.761H184.599C185.05 176.863 194.583 179.078 196.64 179.757C196.751 179.792 196.86 179.833 196.966 179.881C197.92 180.361 199.11 197.683 199.11 197.683C199.11 197.683 199.825 214.044 200.306 215.246C200.788 216.448 202.699 241.225 203.88 240.506C205.061 239.787 213.643 240.506 213.643 240.506C214.597 239.542 213.643 226.553 213.643 226.553L211.951 202.74C211.951 202.74 212.905 189.508 211.951 187.101C210.997 184.693 210.997 168.577 210.997 168.577L191.503 165.499L189.619 165.197L180.529 163.771Z" fill="#5F5D7E"/>
<path opacity="0.02" d="M181.151 165.771L184.515 176.558L184.596 176.77C185.047 176.872 194.58 179.087 196.637 179.766H196.844L191.518 165.502L191.366 165.091L189.634 165.203L181.151 165.771Z" fill="black"/>
<path opacity="0.1" d="M203.392 115.658C203.392 115.658 194.58 125.283 189.102 117.341L183.863 120.951L184.817 126.485L181.719 168.345C181.719 168.345 189.817 168.103 195.531 170.027C197.123 170.598 198.842 170.697 200.488 170.313C202.133 169.929 203.636 169.079 204.819 167.861L203.877 131.056L206.021 119.749L203.392 115.658Z" fill="black"/>
<path d="M203.392 114.936C203.392 114.936 194.58 124.561 189.102 116.619L183.863 120.229L184.817 125.763L181.719 167.623C181.719 167.623 189.817 167.381 195.531 169.305C197.123 169.876 198.842 169.975 200.488 169.591C202.133 169.207 203.636 168.357 204.819 167.139L203.877 130.334L206.021 119.027L203.392 114.936Z" fill="#53526B"/>
<path d="M185.801 157.796V159.312H185.322V158.303H183.573V159.312H183.092V157.799L185.801 157.796Z" fill="#E82127"/>
<path d="M185.373 157.306H183.525C183.404 157.277 183.293 157.215 183.205 157.127C183.116 157.038 183.053 156.927 183.023 156.805H185.872C185.842 156.927 185.779 157.038 185.69 157.126C185.602 157.215 185.491 157.277 185.37 157.306" fill="#E82127"/>
<path d="M202.083 156.823C202.051 156.944 201.988 157.054 201.9 157.141C201.813 157.229 201.703 157.291 201.583 157.322H200.806L200.767 157.337V159.318H200.289V157.337L200.244 157.322H199.466C199.347 157.29 199.238 157.228 199.15 157.14C199.063 157.053 198.999 156.943 198.967 156.823H202.083Z" fill="#E82127"/>
<path d="M185.053 164.738C185.053 164.738 185.053 170.994 183.624 173.64C182.195 176.286 173.861 174.848 173.861 174.848L175.526 165.946L185.053 164.738Z" fill="#D6DBE6"/>
<path d="M174.767 179.177C176.023 180.386 181.229 177.969 180.87 176.531C180.619 175.513 179.74 171.87 179.24 169.804L178.893 168.351C178.893 168.351 175.843 167.387 174.767 168.351C174.375 168.701 174.1 170.082 173.971 171.749C173.75 174.646 173.974 178.41 174.767 179.177Z" fill="#FDC2CC"/>
<path d="M186.234 119.265L194.568 125.76C194.568 125.76 206.951 125.038 203.856 119.024C202.508 116.378 201.695 113.489 201.464 110.523C201.363 109.429 201.363 108.327 201.464 107.233C201.464 107.233 190.032 96.6604 191.461 108.677C191.574 109.6 191.64 110.527 191.659 111.456C191.829 120.477 186.234 119.265 186.234 119.265Z" fill="#FDC2CC"/>
<path opacity="0.1" d="M191.485 108.68C191.598 109.603 191.664 110.53 191.683 111.459C192.965 112.318 194.471 112.774 196.009 112.77C198.142 112.77 199.711 110.674 201.129 109.281C200.97 107.285 201.485 107.236 201.485 107.236C201.485 107.236 190.056 96.6513 191.485 108.68Z" fill="black"/>
<path d="M196.01 112.29C200.35 112.29 203.868 108.736 203.868 104.351C203.868 99.967 200.35 96.4127 196.01 96.4127C191.669 96.4127 188.151 99.967 188.151 104.351C188.151 108.736 191.669 112.29 196.01 112.29Z" fill="#FDC2CC"/>
<path opacity="0.1" d="M201.604 111.928C201.604 111.928 202.914 112.048 205.533 115.655C208.153 119.262 213.867 119.746 213.867 119.746C213.867 119.746 216.011 118.782 218.392 129.609C220.772 140.435 221.487 147.652 220.296 148.854C219.106 150.056 214.343 151.745 211.951 151.745C211.951 151.745 211.236 166.901 212.426 169.547C213.616 172.193 212.187 173.879 212.187 173.879L201.721 173.157C201.721 173.157 198.147 168.586 197.433 160.647C196.718 152.709 194.338 130.092 195.528 127.446C196.718 124.799 201.957 118.063 201.721 117.341C201.485 116.619 201.604 111.928 201.604 111.928Z" fill="black"/>
<path d="M201.631 111.855C201.631 111.855 203.393 111.807 206.012 115.417C208.631 119.027 214.343 119.507 214.343 119.507C214.343 119.507 216.487 118.543 218.867 129.37C221.247 140.197 221.962 147.413 220.772 148.616C219.582 149.818 214.818 151.503 212.438 151.503C212.438 151.503 211.723 166.659 212.914 169.305C214.104 171.951 212.674 173.637 212.674 173.637L202.208 172.915C202.208 172.915 198.635 168.345 197.92 160.406C197.206 152.467 194.819 129.853 196.01 127.219C197.2 124.585 202.439 117.836 202.202 117.114C201.966 116.392 201.631 111.855 201.631 111.855Z" fill="#D6DBE6"/>
<path opacity="0.1" d="M173.974 171.746C175.114 170.867 177.264 169.499 179.243 169.801L178.896 168.348C178.896 168.348 175.846 167.384 174.77 168.348C174.372 168.698 174.1 170.076 173.974 171.746Z" fill="black"/>
<path opacity="0.1" d="M191.617 113.372C191.617 113.372 185.544 117.341 184.829 119.027C184.114 120.712 181.495 121.914 181.495 121.914C181.495 121.914 176.495 124.561 176.495 133.943L173.875 147.175L185.783 164.016C185.783 164.016 187.212 147.175 187.927 143.084C188.642 138.994 189.592 131.303 189.592 131.303C189.592 131.303 193.166 126.733 192.687 125.53C192.209 124.328 191.617 113.372 191.617 113.372Z" fill="black"/>
<path d="M191.617 113.299C191.617 113.299 185.283 116.861 184.572 118.543C183.86 120.226 181.238 121.431 181.238 121.431C181.238 121.431 176.238 124.077 176.238 133.46L173.618 146.691L173.143 171.951C173.143 171.951 177.431 167.861 180.526 169.786C183.621 171.71 185.526 163.529 185.526 163.529C185.526 163.529 186.955 146.688 187.67 142.598C188.384 138.508 189.335 130.817 189.335 130.817C189.335 130.817 192.909 126.246 192.43 125.044C191.952 123.842 191.617 113.299 191.617 113.299Z" fill="#D6DBE6"/>
<path opacity="0.1" d="M189.111 94.6938C189.514 94.1757 189.98 93.7108 190.498 93.3103C191.318 92.6215 192.224 91.9026 193.241 91.963C193.816 92.0404 194.368 92.2401 194.861 92.549C197.393 93.8963 199.918 95.2577 202.436 96.6332C203.366 97.1407 204.325 97.6784 204.974 98.5907C205.623 99.503 205.886 100.675 206.069 101.823C206.221 102.601 206.258 103.397 206.176 104.185C206.102 104.958 205.731 105.671 205.142 106.17C204.463 106.668 203.533 106.671 202.965 107.324C202.636 107.702 202.492 108.23 202.259 108.689C202.026 109.148 201.622 109.596 201.162 109.514C200.701 109.432 200.423 108.94 200.357 108.442C200.328 107.936 200.357 107.43 200.444 106.931C200.534 106.025 200.42 105.064 199.9 104.391C199.541 103.932 199.027 103.654 198.68 103.182C197.849 102.047 198.228 100.162 197.316 99.0952C197.051 98.8164 196.718 98.6137 196.35 98.5075C195.983 98.4014 195.594 98.3957 195.223 98.491C194.484 98.6481 193.809 99.0529 193.13 99.3972C192.213 99.8646 191.252 100.239 190.262 100.515C189.431 100.745 188.468 101.294 188.184 100.177C187.75 98.5363 188.154 96.026 189.111 94.6938Z" fill="black"/>
<path d="M189.35 94.4552C189.753 93.937 190.219 93.4722 190.738 93.0717C191.557 92.3829 192.463 91.664 193.48 91.7244C194.055 91.8017 194.607 92.0015 195.1 92.3104C197.63 93.6577 199.732 92.3829 202.675 96.3946C203.303 97.2525 204.565 97.4398 205.214 98.3521C205.862 99.2644 206.126 100.436 206.308 101.584C206.461 102.362 206.497 103.158 206.416 103.947C206.341 104.72 205.97 105.432 205.381 105.931C204.702 106.43 203.772 106.433 203.204 107.085C202.875 107.463 202.732 107.992 202.498 108.451C202.265 108.91 201.861 109.357 201.401 109.275C200.94 109.194 200.662 108.701 200.597 108.203C200.567 107.698 200.596 107.191 200.683 106.693C200.773 105.786 200.659 104.826 200.139 104.152C199.78 103.693 199.266 103.415 198.919 102.944C198.088 101.808 198.467 99.9229 197.555 98.8565C197.291 98.5778 196.957 98.375 196.59 98.2689C196.222 98.1628 195.833 98.157 195.462 98.2524C194.724 98.4095 194.048 98.8142 193.369 99.1586C192.452 99.6259 191.491 100 190.501 100.276C189.67 100.506 188.707 101.056 188.423 99.938C187.987 98.2977 188.393 95.7844 189.35 94.4552Z" fill="#865A61"/>
<path opacity="0.1" d="M210.814 131.173C210.814 131.173 213.99 139.354 211.607 142.722L206.368 141.514C206.368 141.514 211.131 142.958 210.417 140.07C209.702 137.182 210.814 131.173 210.814 131.173Z" fill="black"/>
<path opacity="0.1" d="M212.549 151.386C212.549 151.386 205.641 151.866 203.736 150.422C206.245 152.356 209.207 153.6 212.333 154.032L212.549 151.386Z" fill="black"/>
<path opacity="0.1" d="M182.793 135.979C182.793 135.979 179.219 147.048 179.458 148.73C179.698 150.413 180.173 168.94 180.173 168.94L180.888 168.698L180.649 148.489L182.793 135.979Z" fill="black"/>
<path d="M213.389 149.507L131.754 83.0485C131.279 82.5687 130.715 82.1884 130.094 81.9292C129.473 81.67 128.808 81.5371 128.136 81.5381H124.667C131.599 72.5644 134.882 61.2576 133.846 49.9232C132.81 38.5888 127.533 28.0804 119.092 20.5405C110.651 13.0007 99.6814 8.99728 88.4192 9.34656C77.157 9.69584 66.4508 14.3715 58.4834 22.4202C50.5161 30.469 45.8877 41.2846 45.542 52.6618C45.1962 64.0391 49.1592 75.1211 56.6227 83.6484C64.0863 92.1757 74.4885 97.5061 85.7082 98.5526C96.928 99.5991 108.12 96.283 117.003 89.2805V92.7816C117.002 93.4603 117.134 94.1325 117.391 94.7597C117.647 95.3869 118.024 95.9568 118.499 96.4368L200.133 162.895C200.606 163.376 201.168 163.758 201.787 164.019C202.407 164.28 203.071 164.414 203.742 164.414C204.413 164.414 205.078 164.28 205.697 164.019C206.317 163.758 206.879 163.376 207.352 162.895L213.368 156.823C214.328 155.854 214.869 154.54 214.873 153.169C214.877 151.798 214.343 150.481 213.389 149.507ZM89.7501 81.5381C84.3598 81.5381 79.0907 79.9234 74.6089 76.8982C70.1271 73.8729 66.634 69.5731 64.5712 64.5423C62.5085 59.5115 61.9688 53.9758 63.0204 48.6351C64.0719 43.2945 66.6676 38.3888 70.479 34.5384C74.2905 30.688 79.1466 28.0658 84.4332 27.0035C89.7198 25.9412 95.1996 26.4864 100.179 28.5702C105.159 30.6541 109.416 34.1829 112.41 38.7105C115.405 43.238 117.003 48.561 117.003 54.0063C117.006 57.6229 116.303 61.2046 114.935 64.5465C113.566 67.8884 111.559 70.925 109.028 73.4826C106.496 76.0402 103.491 78.0686 100.183 79.4519C96.8754 80.8352 93.3301 81.5461 89.7501 81.5442V81.5381Z" fill="url(#paint3_linear)"/>
<path d="M213.987 148.903L132.353 82.4444C131.877 81.9646 131.313 81.5842 130.692 81.325C130.072 81.0658 129.406 80.9329 128.734 80.9339H125.266C132.197 71.9602 135.48 60.6534 134.444 49.319C133.408 37.9846 128.132 27.4762 119.691 19.9364C111.249 12.3965 100.28 8.39311 89.0173 8.74239C77.7551 9.09167 67.0489 13.7674 59.0816 21.8161C51.1143 29.8648 46.4859 40.6804 46.1401 52.0577C45.7944 63.4349 49.7573 74.517 57.2209 83.0443C64.6845 91.5715 75.0866 96.9019 86.3064 97.9484C97.5261 98.9949 108.719 95.6789 117.602 88.6763V92.1775C117.601 92.8561 117.732 93.5283 117.989 94.1555C118.245 94.7827 118.622 95.3527 119.097 95.8327L200.731 162.291C201.204 162.772 201.766 163.154 202.385 163.415C203.005 163.676 203.669 163.81 204.34 163.81C205.012 163.81 205.676 163.676 206.295 163.415C206.915 163.154 207.477 162.772 207.95 162.291L213.966 156.219C214.926 155.25 215.467 153.936 215.471 152.565C215.475 151.194 214.941 149.877 213.987 148.903ZM90.3482 80.9339C84.958 80.9339 79.6888 79.3192 75.207 76.294C70.7252 73.2688 67.2321 68.9689 65.1694 63.9381C63.1066 58.9073 62.5669 53.3716 63.6185 48.0309C64.6701 42.6903 67.2657 37.7846 71.0772 33.9342C74.8886 30.0838 79.7447 27.4617 85.0313 26.3993C90.318 25.337 95.7977 25.8822 100.778 27.9661C105.758 30.0499 110.014 33.5787 113.009 38.1063C116.003 42.6339 117.602 47.9569 117.602 53.4021C117.604 57.0187 116.901 60.6004 115.533 63.9423C114.164 67.2842 112.157 70.3208 109.626 72.8784C107.095 75.436 104.089 77.4644 100.781 78.8477C97.4735 80.231 93.9282 80.942 90.3482 80.94V80.9339Z" fill="#0096E6"/>
<path d="M207.917 142.843C207.917 142.843 196.001 129.038 197.675 138.511C198.871 145.247 203.39 148.857 205.534 149.579C207.678 150.301 207.917 142.843 207.917 142.843Z" fill="#FDC2CC"/>
<path d="M210.775 130.092C210.775 130.092 211.015 138.994 212.205 140.197C213.395 141.399 211.49 142.843 211.49 142.843L206.727 141.634C206.727 141.634 207.923 149.573 202.917 148.613C202.917 148.613 206.251 151.739 209.585 152.222C212.919 152.706 212.68 151.5 212.68 151.5L217.68 145.486L210.775 130.092Z" fill="#D6DBE6"/>
<path d="M212.094 151.63L216.926 150.558L216.281 148.307L213.29 147.099L209.403 148.912L212.094 151.63Z" fill="#D6DBE6"/>
<path d="M93.3295 64.8118L99.7616 59.8003C99.7616 59.8003 95.4526 60.7337 95.5752 53.7767C95.5737 53.7536 95.5737 53.7304 95.5752 53.7072C95.5752 53.0789 95.635 52.3902 95.7247 51.6319C96.8281 42.349 88.0068 50.5173 88.0068 50.5173C88.0827 51.3392 88.0827 52.1664 88.0068 52.9883C88.0068 53.0094 88.0068 53.0336 88.0068 53.0548C87.8323 55.3424 87.2081 57.5719 86.1707 59.613C83.7755 64.2529 93.3295 64.8118 93.3295 64.8118Z" fill="#FDC2CC"/>
<path opacity="0.1" d="M88.829 51.6984C89.9205 52.7708 90.5873 54.7192 92.229 54.7192C93.4168 54.7219 94.5788 54.3698 95.5691 53.7073C95.5691 53.0789 95.6289 52.3902 95.7187 51.632C96.8221 42.3489 88.0007 50.5173 88.0007 50.5173C88.0007 50.5173 88.9457 50.188 88.829 51.6984Z" fill="black"/>
<path d="M92.2291 54.4171C95.5783 54.4171 98.2933 51.6743 98.2933 48.2909C98.2933 44.9075 95.5783 42.1647 92.2291 42.1647C88.8799 42.1647 86.1648 44.9075 86.1648 48.2909C86.1648 51.6743 88.8799 54.4171 92.2291 54.4171Z" fill="#FDC2CC"/>
<path opacity="0.1" d="M98.0451 40.4459C97.6973 40.0018 97.2955 39.6039 96.849 39.2617C96.1493 38.6726 95.3718 38.0534 94.5016 38.1077C94.0092 38.1739 93.5363 38.3448 93.1141 38.6092C90.9462 39.7632 89.149 38.6726 86.6282 42.1043C86.09 42.8384 85.0105 43.0105 84.4543 43.7809C83.8981 44.5512 83.6738 45.5631 83.5153 46.5479C83.3843 47.2141 83.3531 47.8963 83.4226 48.5719C83.4891 49.2349 83.8114 49.8448 84.3197 50.2696C84.8998 50.6955 85.6982 50.6985 86.1857 51.2574C86.4307 51.6214 86.6315 52.0139 86.7837 52.4265C86.9811 52.8192 87.3279 53.1907 87.7227 53.1333C88.1174 53.0759 88.3536 52.644 88.4104 52.2271C88.4351 51.7956 88.41 51.3628 88.3357 50.9372C88.2609 50.1729 88.3566 49.3392 88.8021 48.7622C89.1012 48.3665 89.5497 48.1308 89.8458 47.7291C90.5574 46.7594 90.2345 45.1312 91.015 44.231C91.2432 43.9942 91.5295 43.8228 91.8447 43.7342C92.1598 43.6455 92.4926 43.6429 92.8091 43.7265C93.4377 43.9077 94.0407 44.1697 94.6033 44.5059C95.3883 44.9062 96.2107 45.2269 97.0583 45.4635C97.77 45.6598 98.5953 46.1311 98.8375 45.1614C99.2173 43.7355 98.8614 41.5847 98.0451 40.4459Z" fill="black"/>
<path d="M98.0451 40.1438C97.6973 39.6997 97.2955 39.3019 96.849 38.9596C96.1493 38.3705 95.3718 37.7513 94.5016 37.8056C94.0092 37.8718 93.5363 38.0428 93.1141 38.3071C90.9462 39.4611 89.149 38.3705 86.6282 41.8022C86.09 42.5363 85.0105 42.7084 84.4543 43.4788C83.8981 44.2491 83.6738 45.261 83.5153 46.2458C83.3843 46.912 83.3531 47.5943 83.4226 48.2698C83.4891 48.9328 83.8114 49.5428 84.3197 49.9675C84.8998 50.3934 85.6982 50.3965 86.1857 50.9553C86.4307 51.3193 86.6315 51.7118 86.7837 52.1244C86.9811 52.5171 87.3279 52.8886 87.7227 52.8312C88.1174 52.7738 88.3536 52.3419 88.4104 51.925C88.4351 51.4936 88.41 51.0607 88.3357 50.6351C88.2609 49.8708 88.3566 49.0371 88.8021 48.4601C89.1012 48.0644 89.5497 47.8288 89.8458 47.427C90.5574 46.4573 90.2345 44.8291 91.015 43.9289C91.2432 43.6921 91.5295 43.5207 91.8447 43.4321C92.1598 43.3435 92.4926 43.3408 92.8091 43.4244C93.4377 43.6056 94.0407 43.8676 94.6033 44.2038C95.3883 44.6041 96.2107 44.9249 97.0583 45.1614C97.77 45.3577 98.5953 45.829 98.8375 44.8593C99.2173 43.4334 98.8614 41.2826 98.0451 40.1438Z" fill="#865A61"/>
<path opacity="0.1" d="M86.1648 68.035L86.0452 72.672C87.783 73.1491 89.576 73.3899 91.3768 73.3879C91.6759 73.3879 91.9898 73.388 92.2949 73.3668C93.8918 73.2973 95.4749 73.0357 97.0105 72.5874H97.0404C97.3245 72.5028 97.6056 72.4152 97.8837 72.3186H97.9136L98.1677 72.2279C99.1356 71.8836 100.075 71.4634 100.979 70.9713L101.035 70.9411C101.134 70.8867 101.233 70.8323 101.334 70.7749L100.871 64.5248L101.61 60.2383L97.5667 57.4561C97.3398 57.7872 97.0857 58.0984 96.8072 58.3865C96.4081 58.8076 95.9409 59.157 95.4257 59.4196C92.5251 60.8636 89.2238 58.5678 87.5822 57.148L87.2084 56.8127C86.7838 56.423 86.5416 56.1572 86.5416 56.1572L84.5201 59.3109L86.1648 68.035Z" fill="black"/>
<path d="M86.1648 68.3371L86.0452 72.9741C87.783 73.4512 89.576 73.692 91.3768 73.69C91.6759 73.69 91.9898 73.69 92.2949 73.6689C93.8918 73.5994 95.4749 73.3377 97.0105 72.8895H97.0404C97.3245 72.8049 97.6056 72.7173 97.8837 72.6207H97.9136L98.1677 72.53C99.1356 72.1857 100.075 71.7655 100.979 71.2734L101.035 71.2432C101.134 71.1888 101.233 71.1344 101.334 71.077L100.871 64.8269L101.61 60.5404L97.5667 57.7582C97.3398 58.0893 97.0857 58.4005 96.8072 58.6886C96.4081 59.1097 95.9409 59.4591 95.4257 59.7217C92.5251 61.1657 89.2238 58.8698 87.5822 57.4501L87.2084 57.1147C86.7838 56.7251 86.5416 56.4592 86.5416 56.4592L84.5201 59.613L86.1648 68.3371Z" fill="#53526B"/>
<path d="M97.3724 68.7087C97.3724 68.7087 97.5937 70.4879 97.8837 72.6146H97.9136L98.1678 72.524C99.1357 72.1796 100.076 71.7595 100.979 71.2673L101.035 71.2371C101.134 71.1827 101.233 71.1283 101.334 71.071C102.66 70.3193 103.898 69.4195 105.024 68.3885L105.123 68.2948C105.741 67.7298 106.321 67.1243 106.861 66.4823L106.923 66.4068C105.856 62.664 103.634 61.4859 103.634 61.4859C103.634 61.4859 101.613 60.5555 101.059 59.2565C100.506 57.9575 95.6231 55.2116 95.6231 55.2116V55.2328C95.6231 55.4654 95.5453 57.595 95.4287 59.7368C95.3539 61.1294 95.2613 62.528 95.1536 63.4162C95.1303 63.7047 95.0782 63.9901 94.9981 64.268C94.6183 65.1834 97.3724 68.7087 97.3724 68.7087Z" fill="#555388"/>
</g>
<defs>
<linearGradient id="paint0_linear" x1="153.784" y1="240.035" x2="153.784" y2="11.8689" gradientUnits="userSpaceOnUse">
<stop stop-color="#808080" stop-opacity="0.25"/>
<stop offset="0.54" stop-color="#808080" stop-opacity="0.12"/>
<stop offset="1" stop-color="#808080" stop-opacity="0.1"/>
</linearGradient>
<linearGradient id="paint1_linear" x1="11184.6" y1="18714" x2="11184.6" y2="14289.7" gradientUnits="userSpaceOnUse">
<stop stop-color="#808080" stop-opacity="0.25"/>
<stop offset="0.54" stop-color="#808080" stop-opacity="0.12"/>
<stop offset="1" stop-color="#808080" stop-opacity="0.1"/>
</linearGradient>
<linearGradient id="paint2_linear" x1="-52287.7" y1="142480" x2="-52287.7" y2="53405" gradientUnits="userSpaceOnUse">
<stop stop-color="#808080" stop-opacity="0.25"/>
<stop offset="0.54" stop-color="#808080" stop-opacity="0.12"/>
<stop offset="1" stop-color="#808080" stop-opacity="0.1"/>
</linearGradient>
<linearGradient id="paint3_linear" x1="81082.1" y1="88122.9" x2="81082.1" y2="8472.51" gradientUnits="userSpaceOnUse">
<stop stop-color="#808080" stop-opacity="0.25"/>
<stop offset="0.54" stop-color="#808080" stop-opacity="0.12"/>
<stop offset="1" stop-color="#808080" stop-opacity="0.1"/>
</linearGradient>
<clipPath id="clip0">
<rect width="333" height="255" fill="white"/>
</clipPath>
</defs>
</svg>
