<svg width="315" height="206" viewBox="0 0 315 206" fill="none" xmlns="http://www.w3.org/2000/svg">
<g clip-path="url(#clip0)">
<path d="M298.872 0.158599L0.141357 26.2942L15.8155 205.451L314.546 179.315L298.872 0.158599Z" fill="#E2E2E2"/>
<path d="M292.037 20.4176L10.3906 45.0584L23.6849 197.013L305.331 172.372L292.037 20.4176Z" fill="white"/>
<path d="M298.731 0.0111656L0 26.1467L1.03974 38.031L299.771 11.8954L298.731 0.0111656Z" fill="#0096E6"/>
<path d="M10.1713 33.7831C11.5782 33.66 12.6253 32.4921 12.5101 31.1746C12.3948 29.8571 11.1608 28.8888 9.75383 29.0119C8.34687 29.135 7.29974 30.3029 7.41501 31.6204C7.53028 32.9379 8.76429 33.9061 10.1713 33.7831Z" fill="white"/>
<path d="M19.0997 33.0019C20.5067 32.8788 21.5538 31.711 21.4385 30.3935C21.3233 29.076 20.0893 28.1077 18.6823 28.2308C17.2753 28.3539 16.2282 29.5217 16.3435 30.8392C16.4587 32.1567 17.6928 33.125 19.0997 33.0019Z" fill="white"/>
<path d="M28.0282 32.2208C29.4352 32.0977 30.4823 30.9298 30.367 29.6123C30.2518 28.2948 29.0177 27.3266 27.6108 27.4497C26.2038 27.5727 25.1567 28.7406 25.2719 30.0581C25.3872 31.3756 26.6212 32.3439 28.0282 32.2208Z" fill="white"/>
<path d="M184.761 64.6409L124.091 69.9488L128.432 119.569L189.102 114.261L184.761 64.6409Z" fill="#E2E2E2"/>
<path d="M145.365 71.762L147.838 78.5747L147.933 88.8593L155.574 93.4625L156.443 75.8136L154.742 71.6948L145.365 71.762Z" fill="#FFB8B8"/>
<path d="M153.389 86.8755L154.131 80.0325L156.377 75.0661L165.23 99.6469L150.24 102.967L144.483 83.1361L147.41 77.398L150.228 81.3781L153.389 86.8755Z" fill="white"/>
<path d="M173.15 115.656L147.921 117.863L147.893 115.975L153.439 111.976L161.421 111.278L172.988 114.785L173.15 115.656Z" fill="#2F2E41"/>
<path d="M150.747 75.0568C154.273 74.7483 156.898 71.8212 156.609 68.5189C156.32 65.2167 153.227 62.7898 149.701 63.0983C146.174 63.4068 143.55 66.3339 143.839 69.6362C144.127 72.9384 147.22 75.3653 150.747 75.0568Z" fill="#FFB8B8"/>
<path d="M176.963 95.8597L170.43 91.6597L172.125 103.991L172.289 105.175L172.503 106.739L172.972 110.151L173.723 115.606L160.404 116.771L159.266 114.227L159.135 116.883L146.953 117.948C146.748 116.58 146.556 114.926 146.486 113.246C146.399 111.706 146.474 110.16 146.711 108.631C146.851 107.593 147.221 106.591 147.797 105.691L144.705 97.9287L144.075 103.004L136.672 104.152C136.672 104.152 136.665 104.025 136.657 103.785L136.656 103.781C136.548 101.319 136.119 87.366 139.761 84.3029L147.026 76.3396C147.026 76.3396 147.077 76.868 147.231 77.752L147.232 77.7559C147.357 78.5062 147.556 79.5104 147.858 80.6658L147.859 80.6777C148.537 83.2828 149.721 86.6447 151.744 89.5285C152.492 90.5929 153.102 91.5011 153.602 92.2746C155.765 95.631 155.837 96.454 155.837 96.454L155.855 87.8107L155.857 87.7785L155.858 87.7463L155.877 76.1743L155.88 74.4473L155.879 74.4433C155.879 74.4433 168.194 75.289 172.375 80.1956C175.736 84.1323 181.895 90.4243 184.186 92.7438C184.214 92.7694 184.238 92.7954 184.266 92.821L184.609 93.1716C184.674 93.238 184.735 93.2968 184.787 93.3523C184.843 93.4075 184.89 93.4515 184.928 93.4923L185.078 93.6434L176.963 95.8597Z" fill="#0096E6"/>
<path d="M156.76 100.89C157.201 100.851 157.529 100.486 157.493 100.073C157.457 99.66 157.07 99.3566 156.629 99.3952C156.189 99.4338 155.861 99.7996 155.897 100.212C155.933 100.625 156.319 100.929 156.76 100.89Z" fill="#2F2E41"/>
<path d="M158.413 107.524C158.854 107.485 159.182 107.119 159.146 106.706C159.109 106.294 158.723 105.99 158.282 106.029C157.841 106.067 157.513 106.433 157.549 106.846C157.585 107.259 157.972 107.562 158.413 107.524Z" fill="#2F2E41"/>
<path d="M174.816 108.097L172.618 110.548L170.673 106.702L172.288 105.177L174.816 108.097Z" fill="#FFB8B8"/>
<path d="M144.574 111.747L147.164 113.78L147.261 108.75L145.621 108.392L144.574 111.747Z" fill="#FFB8B8"/>
<path d="M142.372 65.1278C142.372 65.1278 140.316 63.0784 142.081 61.8093L142.13 62.3624C142.13 62.3624 145.758 57.8651 148.249 58.7618L150.329 58.0225L150.377 58.5756L151.659 57.9061L151.466 58.759L153.328 58.5961L152.578 59.219C152.578 59.219 158.673 58.4071 155.311 62.8811C155.311 62.8811 157.299 65.2132 155.737 66.7441C155.737 66.7441 154.054 63.8271 152.264 64.8196C151.781 65.109 151.221 65.2631 150.651 65.2636C150.08 65.2641 149.524 65.111 149.047 64.8224C149.047 64.8224 145.298 64.8717 145.976 66.4844C146.653 68.0971 146.435 68.6735 146.435 68.6735C146.435 68.6735 145.177 69.6195 145.492 70.1493C145.806 70.6791 145.952 72.3383 145.952 72.3383C145.952 72.3383 144.452 70.5189 143.944 70.842C143.436 71.1651 140.268 68.6557 142.372 65.1278Z" fill="#2F2E41"/>
<path d="M137.648 103.064L136.64 103.796L136.693 104.403C136.847 105.466 137.305 106.467 138.019 107.299C139.214 108.701 145.503 113.172 145.503 113.172L146.641 107.8L144.077 103.004L142.616 101.625L137.648 103.064Z" fill="#0096E6"/>
<path d="M181.246 92.7228L184.189 92.7448L185.08 93.6426C185.08 93.6426 185.808 95.8383 184.853 97.177C183.897 98.5158 175.479 109.545 175.479 109.545L171.096 105.41L177.316 96.8322L176.963 95.859L181.246 92.7228Z" fill="#0096E6"/>
<path d="M276.598 56.1151L215.333 61.4751L219.717 111.582L280.982 106.222L276.598 56.1151Z" fill="#E2E2E2"/>
<path d="M254.138 69.0555L240.325 70.5149L237.417 58.7195L253.114 57.3462L254.138 69.0555Z" fill="#2F2E41"/>
<path d="M261.086 70.3304C261.086 70.3304 265.875 69.9114 266.821 74.5984C267.767 79.2854 266.973 91.6559 266.973 91.6559L266.75 107.491L262.999 107.819L262.245 95.8352L261.805 78.5518L258.329 75.5924L261.086 70.3304Z" fill="#A0616A"/>
<path d="M241.398 72.0528C241.398 72.0528 236.788 71.452 233.032 77.5545C233.032 77.5545 222.778 85.9829 226.477 88.4208C230.175 90.8586 239.639 91.7879 239.639 91.7879C239.639 91.7879 236.769 98.8171 238.92 98.8801C241.07 98.943 243.608 91.1896 242.701 90.0138C241.794 88.838 238.802 88.3466 238.802 88.3466L231.602 85.713C231.602 85.713 239.852 77.7969 240.605 80.8261L243.116 79.4338L241.398 72.0528Z" fill="#A0616A"/>
<path d="M250.501 62.721C251.219 64.459 252.349 66.0179 253.806 67.2815C255.262 68.545 257.009 69.4806 258.914 70.0183L252.476 76.1045L243.793 71.8433C243.793 71.8433 246.567 69.8434 245.441 66.1762L250.501 62.721Z" fill="#A0616A"/>
<path d="M245.529 67.1727C249.055 66.8642 251.68 63.9371 251.391 60.6349C251.102 57.3326 248.009 54.9057 244.482 55.2143C240.956 55.5228 238.331 58.4499 238.62 61.7521C238.909 65.0544 242.002 67.4812 245.529 67.1727Z" fill="#A0616A"/>
<path d="M240.29 71.6477L245.068 70.3315C245.068 70.3315 246.893 73.5804 251.905 72.6399C256.916 71.6994 257.628 69.5768 257.628 69.5768L262.416 70.214C262.416 70.214 259.995 73.1872 261.805 78.5518C261.805 78.5518 263.122 87.4741 260.479 90.9689L260.649 95.9749C260.649 95.9749 264.848 104.143 263.291 107.794L237.218 110.075C237.218 110.075 237.193 97.5249 241.698 93.8672L242.566 91.5319C242.566 91.5319 239.675 82.9984 240.608 81.4105C240.608 81.4105 240.578 71.8735 240.29 71.6477Z" fill="#0096E6"/>
<path d="M257.636 65.7497C256.122 65.1312 255.301 63.5173 255.117 61.9737C254.934 60.4301 255.201 58.8632 255.097 57.3122C255.085 56.9941 255.029 56.6792 254.928 56.376C254.775 56.0022 254.556 55.6555 254.28 55.3501C252.159 52.8105 248.716 51.1947 245.262 51.4667C244.763 51.5041 244.275 51.6327 243.827 51.845C243.481 52.0101 243.363 52.0039 243.331 52.4201C242.491 52.2391 241.607 52.3431 240.835 52.7136C240.07 53.084 239.368 53.5601 238.753 54.1257C238.384 54.4331 238.041 54.7653 237.725 55.1198C236.055 57.0486 235.874 59.8122 236.613 62.1748C236.853 62.9429 236.095 63.771 235.456 64.3117C234.816 64.8524 234.067 65.363 233.796 66.1277C233.536 66.8633 233.784 67.6569 233.786 68.4292C233.777 69.1603 233.549 69.8767 233.13 70.4976C232.711 71.1184 232.116 71.619 231.413 71.9429C231.575 72.096 231.779 72.2046 232.004 72.2573C232.228 72.31 232.464 72.3048 232.687 72.2423C233.151 72.1077 233.576 71.8719 233.927 71.5542C235.252 70.4513 236.14 68.9596 236.44 67.3284C236.715 68.164 236.714 69.0507 236.783 69.9248C236.886 70.898 236.779 71.8829 236.469 72.8211C236.152 73.7642 235.491 74.576 234.604 75.1138C235.534 75.4457 236.494 75.0622 237.199 74.3907C237.869 73.6813 238.323 72.8164 238.51 71.8889C238.893 70.4012 238.966 68.8616 238.726 67.3545C239.673 68.5936 240.112 70.1141 239.965 71.6418C239.808 73.2 239.075 74.6638 237.893 75.7795C240.106 75.5683 242.238 74.8642 244.113 73.7262C244.6 73.4673 245.017 73.1067 245.333 72.6729C245.892 71.7989 245.645 70.695 245.381 69.7147C245.172 68.9396 246.123 67.7093 245.472 67.1966C245.304 67.0631 245.09 66.9894 244.868 66.988C242.665 66.8873 240.603 65.8874 239.497 64.1087C239.022 63.3791 238.725 62.5589 238.627 61.706C238.549 60.8076 238.687 59.902 239.033 59.0563C239.379 58.2106 239.922 57.4467 240.624 56.8212C241.325 56.1957 242.166 55.7247 243.084 55.4432C244.001 55.1618 244.973 55.0771 245.925 55.1955C246.878 55.3138 247.788 55.6322 248.587 56.1269C249.385 56.6216 250.053 57.28 250.54 58.0531C251.026 58.8261 251.32 59.6941 251.398 60.5925C251.476 61.4908 251.338 62.3964 250.992 63.2421C251.028 64.4534 250.919 65.6662 250.667 66.8579C250.342 68.3822 249.703 69.9643 248.344 70.8634C248.86 71.0199 249.405 71.0793 249.949 71.0383C251.756 71.0664 253.635 70.8608 255.192 69.9825C256.748 69.1042 257.899 67.4232 257.636 65.7497Z" fill="#2F2E41"/>
<path d="M252.468 59.1599C247.524 57.7822 242.772 57.8119 238.367 60.3935L238.051 56.7726C238.023 56.4629 238.062 56.1506 238.163 55.8534C238.265 55.5562 238.428 55.28 238.642 55.0405C238.857 54.8011 239.119 54.6031 239.415 54.4578C239.71 54.3126 240.032 54.2229 240.363 54.194L249.955 53.3547C250.483 53.3086 251.006 53.4606 251.41 53.7773C251.814 54.0941 252.065 54.5496 252.108 55.0438L252.468 59.1599Z" fill="#2F2E41"/>
<path d="M251.467 61.5069C252.018 61.4586 252.406 60.7503 252.334 59.9248C252.262 59.0992 251.756 58.469 251.205 58.5172C250.654 58.5654 250.266 59.2738 250.339 60.0993C250.411 60.9249 250.916 61.5551 251.467 61.5069Z" fill="#A0616A"/>
<path d="M97.0429 72.163L36.1865 77.4872L40.5409 127.258L101.397 121.934L97.0429 72.163Z" fill="#E2E2E2"/>
<path d="M72.0273 86.4351L58.9692 87.3266L57.4871 70.3856L70.6323 70.4906L72.0273 86.4351Z" fill="#2F2E41"/>
<path d="M87.2712 123.17L59.0997 125.634C59.1986 124.66 59.4309 123.699 59.791 122.777C60.4692 121.336 61.2054 118.259 61.772 115.541C62.1005 113.966 62.3712 112.512 62.5414 111.571C62.6651 110.883 62.7358 110.469 62.7358 110.469L76.1112 104.026C76.1112 104.026 76.5599 104.656 77.286 105.718C77.2958 105.734 77.3071 105.749 77.3199 105.763C77.835 106.515 78.4845 107.484 79.2063 108.595L79.2106 108.595C81.848 112.627 85.4866 118.566 87.2712 123.17Z" fill="#2F2E41"/>
<path d="M61.0193 80.1181L59.9199 89.0008L66.3487 88.9404C66.3487 88.9404 66.7372 81.1241 66.9814 80.8517C67.2257 80.5793 61.0193 80.1181 61.0193 80.1181Z" fill="#FFB8B8"/>
<path d="M65.3936 82.6224C68.92 82.3139 71.5446 79.3868 71.2557 76.0845C70.9667 72.7823 67.8738 70.3554 64.3474 70.6639C60.8209 70.9725 58.1964 73.8996 58.4853 77.2018C58.7742 80.504 61.8671 82.9309 65.3936 82.6224Z" fill="#FFB8B8"/>
<path d="M59.7019 86.5094C59.7019 86.5094 65.9301 87.2197 66.1743 86.9473C66.4186 86.6749 73.7109 87.2921 74.4391 89.4878C75.1674 91.6834 74.6 100.52 74.6 100.52C74.6 100.52 77.6356 101.509 77.4131 102.031C77.1907 102.552 79.0966 102.888 78.6299 103.682C78.1632 104.475 69.7188 118.268 65.1742 118.415C60.6295 118.562 49.919 91.1309 49.919 91.1309C49.919 91.1309 49.8799 87.6198 53.3385 87.3172C56.7972 87.0146 59.7019 86.5094 59.7019 86.5094Z" fill="#0096E6"/>
<path d="M78.8826 105.04C78.8826 105.04 75.2224 106.157 76.0297 107.696C76.8369 109.236 80.7841 108.388 80.7841 108.388L78.8826 105.04Z" fill="#FFB8B8"/>
<path d="M68.8824 124.779L59.0999 125.634C59.0827 125.78 59.0616 125.93 59.0405 126.08C58.5539 125.939 58.0555 125.836 57.5501 125.77C57.4377 125.756 57.3729 125.749 57.3729 125.749C57.3729 125.749 54.5875 118.461 50.8558 109.501C47.546 101.549 49.4498 92.9413 49.922 91.1011L49.9217 91.0971C49.9829 90.8674 50.0191 90.744 50.0191 90.744L52.2615 88.7931L62.5415 111.571L65.232 117.53C65.232 117.53 65.3298 117.866 65.4907 118.385C65.9767 119.929 67.057 123.083 67.9042 123.574C68.3329 123.892 68.6691 124.306 68.8824 124.779Z" fill="#0096E6"/>
<path d="M70.771 88.93L74.1194 88.9624L82.4855 97.1937C82.4855 97.1937 85.63 99.429 83.8549 100.588C82.0797 101.748 81.4559 103.811 81.4559 103.811C81.4559 103.811 84.2863 108.584 80.893 109.634C80.893 109.634 78.0627 104.861 77.2209 104.432C76.3792 104.004 78.0672 101.848 78.0672 101.848L71.6211 98.6462L70.771 88.93Z" fill="#0096E6"/>
<path d="M64.0206 66.9269C64.0206 66.9269 56.4622 66.333 55.6768 72.6777C55.4845 74.1517 55.402 75.6354 55.43 77.1178C55.5365 80.7453 54.7881 84.3593 53.2381 87.7025L65.4937 89.8938C65.4937 89.8938 61.887 85.4396 62.2447 83.4C62.2996 82.8914 62.2473 82.3789 62.0908 81.8915C60.7869 81.2838 59.7494 80.2737 59.1507 79.0291C58.552 77.7844 58.4282 76.3803 58.7999 75.0502C59.1717 73.7202 60.0165 72.5442 61.194 71.718C62.3715 70.8918 63.8106 70.4651 65.2721 70.5089C66.7335 70.5526 68.1293 71.0642 69.2272 71.9585C70.3251 72.8529 71.059 74.0761 71.3069 75.4247C71.5548 76.7734 71.3017 78.1662 70.5898 79.3716C69.8778 80.5769 68.7498 81.5222 67.3934 82.0503C66.6619 83.9422 66.3492 85.9466 67.6702 87.193C69.3423 88.7994 71.2689 90.1546 73.3835 91.2119C73.3835 91.2119 71.5302 85.349 73.3534 81.6749C75.1767 78.0008 72.0456 66.7269 64.0206 66.9269Z" fill="#2F2E41"/>
<path d="M71.3354 74.338L58.9126 76.1158L58.0901 70.6692L68.9222 69.353L71.3354 74.338Z" fill="#2F2E41"/>
<path d="M44.8375 147.571C46.01 147.469 46.8826 146.495 46.7865 145.397C46.6905 144.299 45.6621 143.493 44.4896 143.595C43.3172 143.698 42.4446 144.671 42.5406 145.769C42.6367 146.867 43.665 147.674 44.8375 147.571Z" fill="#E2E2E2"/>
<path d="M45.8116 158.704C46.9841 158.601 47.8567 157.628 47.7606 156.53C47.6646 155.432 46.6362 154.625 45.4638 154.728C44.2913 154.83 43.4187 155.804 43.5147 156.902C43.6108 157.999 44.6391 158.806 45.8116 158.704Z" fill="#E2E2E2"/>
<path d="M46.7855 169.836C47.958 169.734 48.8306 168.761 48.7345 167.663C48.6385 166.565 47.6101 165.758 46.4376 165.86C45.2652 165.963 44.3926 166.936 44.4886 168.034C44.5847 169.132 45.613 169.939 46.7855 169.836Z" fill="#E2E2E2"/>
<path d="M93.7767 139.684L53.4407 143.213L53.719 146.393L94.055 142.864L93.7767 139.684Z" fill="#E2E2E2"/>
<path d="M94.7508 150.816L54.4148 154.345L54.6931 157.526L95.0291 153.997L94.7508 150.816Z" fill="#E2E2E2"/>
<path d="M95.7247 161.949L55.3887 165.478L55.667 168.659L96.003 165.13L95.7247 161.949Z" fill="#E2E2E2"/>
<path d="M136.999 139.508C138.171 139.405 139.044 138.432 138.948 137.334C138.852 136.236 137.823 135.429 136.651 135.532C135.479 135.635 134.606 136.608 134.702 137.706C134.798 138.804 135.826 139.611 136.999 139.508Z" fill="#E2E2E2"/>
<path d="M137.973 150.641C139.145 150.538 140.018 149.565 139.922 148.467C139.826 147.369 138.797 146.562 137.625 146.665C136.452 146.767 135.58 147.741 135.676 148.838C135.772 149.936 136.8 150.743 137.973 150.641Z" fill="#E2E2E2"/>
<path d="M138.947 161.773C140.119 161.671 140.992 160.698 140.896 159.6C140.8 158.502 139.771 157.695 138.599 157.797C137.427 157.9 136.554 158.873 136.65 159.971C136.746 161.069 137.774 161.876 138.947 161.773Z" fill="#E2E2E2"/>
<path d="M185.938 131.621L145.602 135.15L145.881 138.33L186.217 134.801L185.938 131.621Z" fill="#E2E2E2"/>
<path d="M186.912 142.753L146.576 146.282L146.854 149.463L187.19 145.934L186.912 142.753Z" fill="#E2E2E2"/>
<path d="M187.886 153.886L147.55 157.415L147.829 160.596L188.165 157.067L187.886 153.886Z" fill="#E2E2E2"/>
<path d="M228.581 131.496C229.754 131.393 230.626 130.42 230.53 129.322C230.434 128.224 229.406 127.417 228.234 127.52C227.061 127.622 226.188 128.595 226.285 129.693C226.381 130.791 227.409 131.598 228.581 131.496Z" fill="#E2E2E2"/>
<path d="M229.555 142.628C230.728 142.526 231.6 141.552 231.504 140.455C231.408 139.357 230.38 138.55 229.207 138.652C228.035 138.755 227.162 139.728 227.258 140.826C227.354 141.924 228.383 142.731 229.555 142.628Z" fill="#E2E2E2"/>
<path d="M230.529 153.761C231.702 153.658 232.574 152.685 232.478 151.587C232.382 150.489 231.354 149.682 230.181 149.785C229.009 149.888 228.136 150.861 228.232 151.959C228.328 153.057 229.357 153.863 230.529 153.761Z" fill="#E2E2E2"/>
<path d="M277.521 123.608L237.185 127.137L237.463 130.318L277.799 126.789L277.521 123.608Z" fill="#E2E2E2"/>
<path d="M278.495 134.741L238.159 138.27L238.437 141.451L278.773 137.922L278.495 134.741Z" fill="#E2E2E2"/>
<path d="M279.469 145.874L239.133 149.402L239.411 152.583L279.747 149.054L279.469 145.874Z" fill="#E2E2E2"/>
</g>
<defs>
<clipPath id="clip0">
<rect width="300" height="180" fill="white" transform="translate(0 26.1467) rotate(-5)"/>
</clipPath>
</defs>
</svg>
