<svg width="488" height="466" viewBox="0 0 488 466" fill="none" xmlns="http://www.w3.org/2000/svg">
<ellipse cx="251.5" cy="232.99" rx="236.5" ry="232.99" fill="#E6E6E6"/>
<g clip-path="url(#clip0)">
<path d="M212.153 25.3381L198.383 32.4911L28.7345 120.617L14.9646 127.77C8.28301 131.25 3.32422 137.111 1.17615 144.068C-0.97192 151.024 -0.13385 158.508 3.50651 164.877L129.84 385.316C133.495 391.677 139.652 396.398 146.959 398.443C154.266 400.488 162.126 399.69 168.816 396.225L168.852 396.206L365.969 293.811L366.004 293.793C372.686 290.313 377.645 284.451 379.793 277.495C381.941 270.538 381.103 263.054 377.462 256.685L251.129 36.247C247.474 29.8857 241.317 25.1647 234.01 23.1196C226.703 21.0745 218.843 21.8724 212.153 25.3381Z" fill="#F2F2F2"/>
<path d="M216.113 32.2486L199.803 40.7207L35.2334 126.208L18.9241 134.68C14.1659 137.159 10.6346 141.333 9.10492 146.287C7.57522 151.241 8.17203 156.57 10.7644 161.105L137.098 381.544C139.701 386.074 144.085 389.436 149.288 390.892C154.492 392.349 160.09 391.78 164.854 389.312L164.889 389.294L362.006 286.899L362.042 286.88C366.8 284.402 370.331 280.228 371.861 275.274C373.391 270.32 372.794 264.991 370.201 260.456L243.868 40.0171C241.265 35.4871 236.881 32.1252 231.678 30.6688C226.474 29.2124 220.877 29.7806 216.113 32.2486Z" fill="white"/>
<path d="M218.832 100.672L145.315 138.862C144.201 139.44 142.892 139.574 141.674 139.233C140.457 138.893 139.432 138.105 138.824 137.045C138.216 135.985 138.076 134.738 138.434 133.579C138.792 132.42 139.619 131.444 140.732 130.866L214.249 92.6764C215.363 92.0979 216.673 91.9642 217.89 92.3049C219.107 92.6456 220.132 93.4327 220.74 94.493C221.348 95.5533 221.488 96.8001 221.13 97.9589C220.772 99.1178 219.946 100.094 218.832 100.672H218.832Z" fill="#F2F2F2"/>
<path d="M243.887 105.167L153.048 152.355C151.934 152.934 150.624 153.067 149.407 152.726C148.19 152.386 147.165 151.599 146.557 150.538C145.949 149.478 145.809 148.231 146.167 147.072C146.525 145.914 147.351 144.938 148.465 144.359L239.305 97.1715C239.856 96.885 240.461 96.7047 241.086 96.641C241.711 96.5772 242.342 96.6313 242.945 96.7999C243.548 96.9686 244.11 97.2487 244.599 97.6241C245.088 97.9996 245.494 98.463 245.795 98.988C246.096 99.5131 246.285 100.089 246.352 100.684C246.419 101.279 246.363 101.88 246.185 102.454C246.008 103.028 245.714 103.563 245.32 104.028C244.925 104.494 244.439 104.881 243.887 105.167H243.887Z" fill="#F2F2F2"/>
<path d="M115.091 122.965L47.3127 158.173C46.7792 158.451 46.3832 158.918 46.2117 159.474C46.0403 160.029 46.1075 160.626 46.3985 161.134L75.2603 211.495C75.5516 212.003 76.0428 212.38 76.626 212.543C77.2092 212.707 77.8366 212.643 78.3703 212.366L146.149 177.157C146.682 176.88 147.078 176.412 147.25 175.857C147.421 175.302 147.354 174.704 147.063 174.196L118.201 123.835C117.91 123.327 117.419 122.95 116.836 122.787C116.252 122.624 115.625 122.688 115.091 122.965Z" fill="#F2F2F2"/>
<path d="M255.309 164.572L155.592 216.371C155.041 216.658 154.436 216.838 153.811 216.902C153.186 216.965 152.555 216.911 151.952 216.743C151.349 216.574 150.787 216.294 150.298 215.919C149.809 215.543 149.403 215.08 149.102 214.555C148.801 214.03 148.612 213.453 148.545 212.859C148.478 212.264 148.534 211.663 148.712 211.089C148.889 210.515 149.183 209.98 149.577 209.514C149.972 209.049 150.458 208.662 151.01 208.375L250.727 156.576C251.84 155.998 253.15 155.864 254.367 156.205C255.584 156.545 256.61 157.333 257.217 158.393C257.825 159.453 257.965 160.7 257.607 161.859C257.25 163.018 256.423 163.994 255.309 164.572H255.309Z" fill="#F2F2F2"/>
<path d="M280.364 169.067L163.325 229.865C162.212 230.443 160.902 230.577 159.685 230.236C158.468 229.895 157.442 229.108 156.835 228.048C156.227 226.988 156.087 225.741 156.444 224.582C156.802 223.423 157.629 222.447 158.743 221.869L275.782 161.071C276.896 160.493 278.205 160.359 279.422 160.7C280.64 161.04 281.665 161.828 282.272 162.888C282.88 163.948 283.021 165.195 282.663 166.354C282.305 167.513 281.478 168.489 280.364 169.067H280.364Z" fill="#F2F2F2"/>
<path d="M117.615 258.793C128.824 258.793 137.911 250.142 137.911 239.471C137.911 228.8 128.824 220.149 117.615 220.149C106.407 220.149 97.3203 228.8 97.3203 239.471C97.3203 250.142 106.407 258.793 117.615 258.793Z" fill="#F2F2F2"/>
<path d="M421.273 116.168H196.643C189.027 116.176 181.725 119.06 176.34 124.187C170.954 129.315 167.925 136.266 167.916 143.517V394.634C167.925 401.885 170.954 408.836 176.34 413.964C181.725 419.091 189.027 421.975 196.643 421.983H421.273C428.889 421.975 436.191 419.091 441.577 413.964C446.962 408.836 449.991 401.885 450 394.634V143.517C449.991 136.266 446.962 129.315 441.577 124.187C436.191 119.06 428.889 116.176 421.273 116.168Z" fill="#E6E6E6"/>
<path d="M421.274 124.041H196.643C191.219 124.047 186.02 126.101 182.184 129.752C178.349 133.403 176.192 138.354 176.186 143.517V394.634C176.192 399.797 178.349 404.748 182.184 408.399C186.02 412.05 191.219 414.104 196.643 414.11H421.274C426.697 414.104 431.897 412.05 435.732 408.399C439.567 404.748 441.724 399.797 441.73 394.634V143.517C441.724 138.354 439.567 133.403 435.732 129.752C431.897 126.101 426.697 124.047 421.274 124.041Z" fill="white"/>
<path d="M389.237 185.347H305.489C304.22 185.347 303.004 184.867 302.106 184.013C301.209 183.159 300.705 182 300.705 180.792C300.705 179.584 301.209 178.426 302.106 177.572C303.004 176.717 304.22 176.238 305.489 176.238H389.237C389.866 176.237 390.489 176.354 391.07 176.583C391.651 176.811 392.179 177.147 392.624 177.57C393.068 177.993 393.421 178.495 393.662 179.048C393.903 179.601 394.027 180.194 394.027 180.792C394.027 181.391 393.903 181.983 393.662 182.536C393.421 183.089 393.068 183.592 392.624 184.015C392.179 184.438 391.651 184.773 391.07 185.001C390.489 185.23 389.866 185.347 389.237 185.347Z" fill="#0096E6"/>
<path d="M408.97 200.718H305.489C304.22 200.718 303.004 200.238 302.106 199.384C301.209 198.53 300.705 197.371 300.705 196.163C300.705 194.955 301.209 193.797 302.106 192.943C303.004 192.088 304.22 191.609 305.489 191.609H408.97C410.239 191.609 411.456 192.088 412.353 192.943C413.25 193.797 413.754 194.955 413.754 196.163C413.754 197.371 413.25 198.53 412.353 199.384C411.456 200.238 410.239 200.718 408.97 200.718Z" fill="#0096E6"/>
<path d="M286.955 157.61H209.744C209.136 157.61 208.553 157.84 208.124 158.249C207.694 158.658 207.452 159.213 207.452 159.792V217.161C207.452 217.74 207.694 218.295 208.124 218.704C208.553 219.114 209.136 219.344 209.744 219.344H286.955C287.563 219.344 288.146 219.114 288.576 218.704C289.006 218.295 289.247 217.74 289.247 217.161V159.792C289.247 159.213 289.006 158.658 288.576 158.249C288.146 157.84 287.563 157.61 286.955 157.61Z" fill="#E6E6E6"/>
<path d="M230.924 192.839C230.956 197.682 229.081 202.361 225.669 205.953C222.292 209.481 217.266 211.82 212.194 210.852C207.524 209.961 203.729 206.075 204.202 201.373C204.281 200.355 204.592 199.365 205.113 198.473C205.635 197.58 206.354 196.807 207.222 196.207C208.089 195.607 209.084 195.194 210.136 194.997C211.189 194.8 212.273 194.824 213.315 195.067C217.752 196.164 219.52 202.252 215.822 205.109C214.935 205.795 213.661 204.596 214.556 203.903C217 202.014 216.245 197.882 213.295 196.846C209.861 195.639 206.222 198.234 205.975 201.577C205.682 205.541 208.871 208.526 212.782 209.228C217.013 209.989 221.208 207.927 224.075 205.081C227.36 201.777 229.173 197.389 229.133 192.839C229.141 192.618 229.239 192.408 229.406 192.255C229.573 192.101 229.796 192.015 230.028 192.015C230.261 192.015 230.484 192.101 230.651 192.255C230.818 192.408 230.916 192.618 230.924 192.839Z" fill="#2F2E41"/>
<path d="M248.41 203.677C266.053 203.677 280.356 190.059 280.356 173.262C280.356 156.464 266.053 142.847 248.41 142.847C230.766 142.847 216.463 156.464 216.463 173.262C216.463 190.059 230.766 203.677 248.41 203.677Z" fill="#0096E6"/>
<path d="M246.775 186.24L246.742 185.104C248.963 185.045 250.921 184.912 252.392 183.889C252.81 183.582 253.152 183.194 253.398 182.749C253.643 182.305 253.785 181.816 253.814 181.315C253.84 181.009 253.791 180.701 253.672 180.416C253.552 180.131 253.366 179.876 253.126 179.67C252.149 178.885 250.578 179.139 249.432 179.639L248.444 180.07L250.339 166.891L251.521 167.045L249.91 178.256C251.467 177.82 252.909 178.008 253.896 178.802C254.276 179.117 254.573 179.512 254.766 179.955C254.959 180.398 255.041 180.877 255.007 181.355C254.972 182.028 254.783 182.686 254.453 183.282C254.123 183.878 253.66 184.399 253.097 184.807C251.206 186.122 248.749 186.188 246.775 186.24Z" fill="#2F2E41"/>
<path d="M263.8 168.012H257.371V169.148H263.8V168.012Z" fill="#2F2E41"/>
<path d="M243.505 168.012H237.075V169.148H243.505V168.012Z" fill="#2F2E41"/>
<path d="M230.714 219.344C233.108 217.897 235.696 216.764 238.408 215.974C238.149 215.098 238.154 214.171 238.42 213.297C238.78 212.193 239.505 211.23 240.487 210.551C241.47 209.872 242.656 209.514 243.87 209.529H251.654C252.87 209.514 254.058 209.874 255.042 210.554C256.026 211.234 256.753 212.198 257.116 213.303C257.382 214.175 257.386 215.1 257.127 215.974C259.839 216.765 262.427 217.898 264.822 219.344H230.714Z" fill="#2F2E41"/>
<path d="M285.003 161.974C284.421 161.303 283.705 160.749 282.897 160.343C282.187 159.99 281.399 159.805 280.598 159.803C279.499 159.816 278.432 160.158 277.548 160.781C275.119 162.417 273.435 165.947 273.435 170.033C273.435 175.159 276.086 179.41 279.53 180.149C279.881 180.224 280.239 180.262 280.598 180.263C284.544 180.263 287.761 175.676 287.761 170.033C287.761 166.76 286.681 163.844 285.003 161.974Z" fill="#3F3D56"/>
<path d="M219.39 160.536H219.385C218.587 160.065 217.668 159.811 216.728 159.803C215.928 159.805 215.14 159.99 214.43 160.343C213.621 160.749 212.905 161.303 212.323 161.974L212.317 161.98C210.646 163.85 209.565 166.765 209.565 170.033C209.565 174.443 211.523 178.205 214.269 179.643C215.02 180.044 215.867 180.257 216.728 180.263C216.92 180.263 217.111 180.251 217.301 180.229H217.307C220.984 179.808 223.891 175.398 223.891 170.033C223.891 165.737 222.023 162.048 219.39 160.536Z" fill="#3F3D56"/>
<path d="M214.717 178.665C214.859 178.664 214.999 178.632 215.125 178.57C215.252 178.508 215.361 178.419 215.444 178.309C215.527 178.199 215.581 178.072 215.602 177.938C215.623 177.804 215.61 177.668 215.565 177.539C213.854 172.695 213.339 167.539 214.061 162.474C214.782 157.409 216.721 152.571 219.726 148.335C222.731 144.099 226.722 140.58 231.388 138.052C236.054 135.523 241.269 134.053 246.629 133.755C251.988 133.457 257.348 134.34 262.291 136.335C267.234 138.33 271.628 141.383 275.13 145.258C278.632 149.132 281.148 153.723 282.484 158.674C283.819 163.624 283.938 168.802 282.83 173.803C282.781 174.024 282.826 174.255 282.956 174.444C283.086 174.634 283.289 174.766 283.521 174.813C283.754 174.86 283.996 174.817 284.195 174.693C284.394 174.57 284.533 174.376 284.582 174.155C285.748 168.896 285.624 163.453 284.22 158.248C282.816 153.042 280.171 148.215 276.489 144.141C272.807 140.068 268.188 136.858 262.991 134.76C257.794 132.662 252.158 131.734 246.523 132.047C240.888 132.36 235.404 133.906 230.499 136.565C225.593 139.224 221.398 142.925 218.239 147.378C215.08 151.832 213.042 156.919 212.284 162.245C211.526 167.571 212.068 172.991 213.868 178.084C213.928 178.253 214.042 178.4 214.194 178.504C214.347 178.608 214.529 178.665 214.717 178.665Z" fill="#3F3D56"/>
<path d="M264.458 153.556C265.723 155.2 265.099 157.415 263.767 158.833C262.032 160.677 259.267 160.794 256.865 160.451C254.171 160.067 251.312 158.865 248.584 159.675C246.259 160.366 244.6 162.373 242.185 162.878C240.042 163.325 237.48 162.733 236.729 160.559C236.369 159.514 238.097 159.067 238.456 160.106C238.942 161.512 241.04 161.484 242.242 161.095C244.168 160.47 245.652 158.952 247.545 158.226C249.777 157.371 252.199 157.757 254.472 158.244C256.613 158.703 259.079 159.384 261.212 158.526C262.791 157.892 264.048 155.892 262.912 154.416C262.23 153.53 263.783 152.679 264.458 153.556Z" fill="#2F2E41"/>
<path d="M389.111 258.074H275.517C274.889 258.074 274.267 257.956 273.687 257.727C273.106 257.498 272.579 257.163 272.135 256.74C271.69 256.317 271.338 255.815 271.098 255.262C270.857 254.71 270.733 254.117 270.733 253.519C270.733 252.921 270.857 252.329 271.098 251.776C271.338 251.224 271.69 250.722 272.135 250.299C272.579 249.876 273.106 249.54 273.687 249.311C274.267 249.083 274.889 248.965 275.517 248.965H389.111C390.379 248.966 391.594 249.447 392.49 250.301C393.386 251.155 393.89 252.312 393.89 253.519C393.89 254.726 393.386 255.884 392.49 256.738C391.594 257.592 390.379 258.073 389.111 258.074Z" fill="#E6E6E6"/>
<path d="M408.844 273.445H275.517C274.888 273.446 274.266 273.328 273.685 273.1C273.104 272.871 272.576 272.536 272.131 272.113C271.686 271.69 271.333 271.187 271.093 270.634C270.852 270.082 270.728 269.489 270.728 268.89C270.728 268.292 270.852 267.699 271.093 267.146C271.333 266.593 271.686 266.091 272.131 265.668C272.576 265.245 273.104 264.91 273.685 264.681C274.266 264.452 274.888 264.335 275.517 264.336H408.844C409.473 264.335 410.096 264.452 410.677 264.681C411.258 264.91 411.786 265.245 412.23 265.668C412.675 266.091 413.028 266.593 413.269 267.146C413.509 267.699 413.633 268.292 413.633 268.89C413.633 269.489 413.509 270.082 413.269 270.634C413.028 271.187 412.675 271.69 412.23 272.113C411.786 272.536 411.258 272.871 410.677 273.1C410.096 273.328 409.473 273.446 408.844 273.445Z" fill="#E6E6E6"/>
<path d="M389.111 313.32H275.517C274.248 313.32 273.032 312.84 272.135 311.986C271.237 311.132 270.733 309.973 270.733 308.765C270.733 307.557 271.237 306.399 272.135 305.545C273.032 304.691 274.248 304.211 275.517 304.211H389.111C390.38 304.211 391.597 304.691 392.494 305.545C393.391 306.399 393.895 307.557 393.895 308.765C393.895 309.973 393.391 311.132 392.494 311.986C391.597 312.84 390.38 313.32 389.111 313.32Z" fill="#E6E6E6"/>
<path d="M408.844 328.691H275.517C274.248 328.691 273.032 328.211 272.135 327.357C271.237 326.503 270.733 325.344 270.733 324.136C270.733 322.928 271.237 321.77 272.135 320.916C273.032 320.062 274.248 319.582 275.517 319.582H408.844C410.113 319.582 411.33 320.062 412.227 320.916C413.124 321.77 413.628 322.928 413.628 324.136C413.628 325.344 413.124 326.503 412.227 327.357C411.33 328.211 410.113 328.691 408.844 328.691Z" fill="#E6E6E6"/>
<path d="M230.559 280.356C241.767 280.356 250.854 271.705 250.854 261.034C250.854 250.362 241.767 241.712 230.559 241.712C219.35 241.712 210.263 250.362 210.263 261.034C210.263 271.705 219.35 280.356 230.559 280.356Z" fill="#E6E6E6"/>
<path d="M230.559 336.049C241.767 336.049 250.854 327.398 250.854 316.727C250.854 306.055 241.767 297.405 230.559 297.405C219.35 297.405 210.263 306.055 210.263 316.727C210.263 327.398 219.35 336.049 230.559 336.049Z" fill="#E6E6E6"/>
<path d="M389.111 369.013H275.517C274.248 369.013 273.032 368.533 272.135 367.679C271.237 366.825 270.733 365.666 270.733 364.458C270.733 363.25 271.237 362.092 272.135 361.238C273.032 360.384 274.248 359.904 275.517 359.904H389.111C390.38 359.904 391.597 360.384 392.494 361.238C393.391 362.092 393.895 363.25 393.895 364.458C393.895 365.666 393.391 366.825 392.494 367.679C391.597 368.533 390.38 369.013 389.111 369.013Z" fill="#E6E6E6"/>
<path d="M408.844 384.384H275.517C274.248 384.384 273.032 383.904 272.135 383.05C271.237 382.196 270.733 381.037 270.733 379.829C270.733 378.622 271.237 377.463 272.135 376.609C273.032 375.755 274.248 375.275 275.517 375.275H408.844C410.113 375.275 411.33 375.755 412.227 376.609C413.124 377.463 413.628 378.622 413.628 379.829C413.628 381.037 413.124 382.196 412.227 383.05C411.33 383.904 410.113 384.384 408.844 384.384Z" fill="#E6E6E6"/>
<path d="M230.559 391.742C241.767 391.742 250.854 383.091 250.854 372.42C250.854 361.748 241.767 353.098 230.559 353.098C219.35 353.098 210.263 361.748 210.263 372.42C210.263 383.091 219.35 391.742 230.559 391.742Z" fill="#E6E6E6"/>
</g>
<defs>
<clipPath id="clip0">
<rect width="450" height="399.983" fill="white" transform="translate(0 22)"/>
</clipPath>
</defs>
</svg>
