<svg width="488" height="466" viewBox="0 0 488 466" fill="none" xmlns="http://www.w3.org/2000/svg">
<ellipse cx="251.5" cy="233" rx="236.5" ry="233" fill="#F3F3F3"/>
<path d="M212.153 25.3383L198.383 32.4915L28.7345 120.621L14.9646 127.774C8.28301 131.255 3.32422 137.116 1.17615 144.073C-0.97192 151.03 -0.13385 158.514 3.50651 164.883L129.84 385.331C133.495 391.693 139.652 396.414 146.959 398.459C154.266 400.504 162.126 399.706 168.816 396.24L168.852 396.222L365.969 293.823L366.004 293.804C372.686 290.324 377.645 284.463 379.793 277.506C381.941 270.549 381.103 263.065 377.462 256.695L251.129 36.2476C247.474 29.8861 241.317 25.1648 234.01 23.1196C226.703 21.0744 218.843 21.8723 212.153 25.3383V25.3383Z" fill="#F2F2F2"/>
<path d="M216.113 32.2488L199.803 40.7213L35.2334 126.212L18.9241 134.685C14.1659 137.163 10.6346 141.337 9.10492 146.292C7.57522 151.246 8.17203 156.575 10.7644 161.111L137.098 381.559C139.701 386.089 144.085 389.451 149.288 390.908C154.492 392.364 160.09 391.796 164.853 389.328L164.889 389.309L362.006 286.91L362.042 286.891C366.8 284.413 370.331 280.239 371.861 275.285C373.391 270.331 372.794 265.001 370.201 260.465L243.868 40.0176C241.265 35.4874 236.881 32.1253 231.678 30.6689C226.474 29.2124 220.877 29.7806 216.113 32.2488V32.2488Z" fill="white"/>
<path d="M218.832 100.676L145.315 138.867C144.201 139.445 142.891 139.579 141.674 139.238C140.457 138.898 139.432 138.11 138.824 137.05C138.216 135.99 138.076 134.743 138.434 133.584C138.792 132.425 139.618 131.449 140.732 130.87L214.249 92.6795C215.363 92.1009 216.672 91.9673 217.89 92.308C219.107 92.6487 220.132 93.4358 220.74 94.4961C221.348 95.5565 221.488 96.8033 221.13 97.9622C220.772 99.1211 219.945 100.097 218.832 100.676H218.832Z" fill="#F2F2F2"/>
<path d="M243.887 105.171L153.048 152.36C151.934 152.939 150.624 153.073 149.407 152.732C148.19 152.391 147.165 151.604 146.557 150.544C145.949 149.483 145.809 148.237 146.167 147.078C146.525 145.919 147.351 144.943 148.465 144.364L239.305 97.1746C239.856 96.8881 240.461 96.7078 241.086 96.6441C241.711 96.5804 242.342 96.6344 242.945 96.8031C243.548 96.9718 244.11 97.2518 244.599 97.6273C245.088 98.0027 245.494 98.4662 245.795 98.9913C246.096 99.5163 246.285 100.093 246.352 100.687C246.419 101.282 246.362 101.884 246.185 102.457C246.008 103.031 245.714 103.566 245.32 104.032C244.925 104.497 244.439 104.884 243.887 105.171H243.887Z" fill="#F2F2F2"/>
<path d="M115.091 122.969L47.3126 158.179C46.779 158.456 46.383 158.924 46.2116 159.479C46.0402 160.035 46.1074 160.632 46.3984 161.14L75.2602 211.503C75.5515 212.011 76.0427 212.388 76.6259 212.551C77.2091 212.715 77.8365 212.651 78.3701 212.374L146.149 177.164C146.682 176.887 147.078 176.419 147.25 175.864C147.421 175.308 147.354 174.711 147.063 174.203L118.201 123.84C117.91 123.332 117.419 122.955 116.835 122.792C116.252 122.628 115.625 122.692 115.091 122.969V122.969Z" fill="#F2F2F2"/>
<path d="M255.309 164.578L155.592 216.38C155.041 216.666 154.436 216.846 153.811 216.91C153.186 216.974 152.555 216.92 151.952 216.751C151.349 216.582 150.787 216.302 150.298 215.927C149.809 215.551 149.403 215.088 149.102 214.563C148.801 214.038 148.612 213.462 148.545 212.867C148.478 212.272 148.534 211.671 148.712 211.097C148.889 210.523 149.183 209.988 149.577 209.522C149.972 209.057 150.458 208.67 151.01 208.383L250.727 156.582C251.84 156.003 253.15 155.87 254.367 156.211C255.584 156.551 256.61 157.338 257.217 158.399C257.825 159.459 257.965 160.706 257.607 161.865C257.25 163.024 256.423 164 255.309 164.578H255.309Z" fill="#F2F2F2"/>
<path d="M280.364 169.074L163.325 229.873C162.212 230.452 160.902 230.586 159.685 230.245C158.468 229.904 157.442 229.117 156.835 228.057C156.227 226.996 156.087 225.75 156.445 224.591C156.802 223.432 157.629 222.456 158.743 221.877L275.782 161.077C276.896 160.499 278.205 160.365 279.422 160.706C280.64 161.046 281.665 161.834 282.273 162.894C282.88 163.954 283.021 165.201 282.663 166.36C282.305 167.519 281.478 168.495 280.365 169.074H280.364Z" fill="#F2F2F2"/>
<path d="M117.615 258.803C128.824 258.803 137.911 250.152 137.911 239.48C137.911 228.809 128.824 220.157 117.615 220.157C106.407 220.157 97.3203 228.809 97.3203 239.48C97.3203 250.152 106.407 258.803 117.615 258.803Z" fill="#F2F2F2"/>
<path d="M421.273 116.172H196.643C189.027 116.18 181.725 119.064 176.34 124.192C170.954 129.319 167.925 136.271 167.916 143.522V394.65C167.925 401.901 170.954 408.853 176.34 413.98C181.725 419.108 189.027 421.992 196.643 422H421.273C428.89 421.992 436.191 419.108 441.577 413.98C446.962 408.853 449.991 401.901 450 394.65V143.522C449.991 136.271 446.962 129.319 441.577 124.192C436.191 119.064 428.89 116.18 421.273 116.172V116.172Z" fill="#E6E6E6"/>
<path d="M421.274 124.046H196.643C191.219 124.051 186.019 126.105 182.184 129.757C178.349 133.408 176.192 138.359 176.186 143.523V394.65C176.192 399.813 178.349 404.764 182.184 408.415C186.019 412.067 191.219 414.121 196.643 414.126H421.274C426.697 414.121 431.897 412.067 435.732 408.415C439.567 404.764 441.724 399.813 441.73 394.65V143.523C441.724 138.359 439.567 133.408 435.732 129.757C431.897 126.105 426.697 124.051 421.274 124.046V124.046Z" fill="white"/>
<path d="M389.237 185.353H305.489C304.22 185.353 303.004 184.873 302.106 184.019C301.209 183.165 300.705 182.007 300.705 180.799C300.705 179.591 301.209 178.432 302.106 177.578C303.004 176.724 304.22 176.244 305.489 176.244H389.237C389.866 176.243 390.489 176.361 391.07 176.589C391.651 176.818 392.179 177.153 392.624 177.576C393.068 177.999 393.421 178.502 393.662 179.055C393.903 179.608 394.027 180.2 394.027 180.799C394.027 181.397 393.903 181.99 393.662 182.543C393.421 183.096 393.068 183.598 392.624 184.021C392.179 184.444 391.651 184.779 391.07 185.008C390.489 185.237 389.866 185.354 389.237 185.353Z" fill="#6C63FF"/>
<path d="M408.97 200.725H305.489C304.22 200.725 303.004 200.245 302.106 199.391C301.209 198.537 300.705 197.378 300.705 196.17C300.705 194.962 301.209 193.804 302.106 192.95C303.004 192.096 304.22 191.616 305.489 191.616H408.97C410.239 191.616 411.456 192.096 412.353 192.95C413.25 193.804 413.754 194.962 413.754 196.17C413.754 197.378 413.25 198.537 412.353 199.391C411.456 200.245 410.239 200.725 408.97 200.725V200.725Z" fill="#6C63FF"/>
<path d="M286.955 157.615H209.744C209.136 157.616 208.553 157.845 208.124 158.255C207.694 158.664 207.452 159.219 207.452 159.798V217.17C207.452 217.748 207.694 218.303 208.124 218.713C208.553 219.122 209.136 219.352 209.744 219.352H286.955C287.563 219.352 288.146 219.122 288.576 218.713C289.006 218.303 289.247 217.748 289.247 217.17V159.798C289.247 159.219 289.006 158.664 288.576 158.255C288.146 157.845 287.563 157.616 286.955 157.615V157.615Z" fill="#E6E6E6"/>
<path d="M230.924 192.846C230.956 197.689 229.081 202.368 225.669 205.96C222.292 209.488 217.266 211.827 212.194 210.86C207.524 209.968 203.729 206.082 204.202 201.38C204.281 200.362 204.592 199.372 205.113 198.48C205.635 197.588 206.354 196.814 207.222 196.214C208.089 195.614 209.084 195.201 210.136 195.004C211.189 194.807 212.273 194.831 213.315 195.075C217.752 196.171 219.52 202.259 215.822 205.116C214.935 205.802 213.661 204.603 214.556 203.911C217 202.022 216.245 197.889 213.295 196.853C209.861 195.646 206.222 198.241 205.975 201.584C205.682 205.548 208.871 208.533 212.782 209.236C217.013 209.996 221.208 207.934 224.075 205.088C227.36 201.784 229.173 197.396 229.133 192.846C229.141 192.625 229.239 192.415 229.406 192.262C229.573 192.108 229.796 192.022 230.028 192.022C230.261 192.022 230.484 192.108 230.651 192.262C230.818 192.415 230.916 192.625 230.924 192.846V192.846Z" fill="#2F2E41"/>
<path d="M248.41 203.684C266.053 203.684 280.356 190.067 280.356 173.268C280.356 156.47 266.053 142.852 248.41 142.852C230.766 142.852 216.463 156.47 216.463 173.268C216.463 190.067 230.766 203.684 248.41 203.684Z" fill="#6C63FF"/>
<path d="M246.775 186.247L246.742 185.11C248.963 185.051 250.921 184.918 252.392 183.895C252.81 183.588 253.152 183.2 253.398 182.756C253.643 182.312 253.785 181.822 253.814 181.321C253.84 181.015 253.791 180.708 253.672 180.422C253.552 180.137 253.366 179.882 253.126 179.676C252.149 178.891 250.578 179.145 249.432 179.645L248.444 180.077L250.338 166.897L251.521 167.051L249.91 178.262C251.466 177.827 252.909 178.014 253.896 178.808C254.276 179.124 254.573 179.518 254.766 179.961C254.958 180.404 255.041 180.883 255.007 181.361C254.972 182.035 254.783 182.692 254.453 183.288C254.123 183.885 253.66 184.405 253.097 184.813C251.206 186.128 248.749 186.194 246.775 186.247Z" fill="#2F2E41"/>
<path d="M263.8 168.018H257.371V169.155H263.8V168.018Z" fill="#2F2E41"/>
<path d="M243.505 168.018H237.076V169.155H243.505V168.018Z" fill="#2F2E41"/>
<path d="M230.714 219.352C233.108 217.905 235.696 216.772 238.408 215.982C238.149 215.106 238.153 214.179 238.42 213.305C238.78 212.201 239.505 211.238 240.487 210.559C241.47 209.88 242.656 209.522 243.87 209.537H251.654C252.869 209.522 254.058 209.882 255.042 210.562C256.026 211.242 256.753 212.206 257.116 213.311C257.382 214.183 257.386 215.108 257.127 215.982C259.839 216.773 262.426 217.906 264.822 219.352H230.714Z" fill="#2F2E41"/>
<path d="M285.003 161.98C284.421 161.309 283.705 160.755 282.896 160.349C282.187 159.996 281.399 159.811 280.598 159.809C279.499 159.822 278.432 160.164 277.548 160.787C275.118 162.423 273.435 165.953 273.435 170.039C273.435 175.165 276.086 179.416 279.53 180.155C279.88 180.23 280.239 180.268 280.598 180.269C284.544 180.269 287.761 175.682 287.761 170.039C287.761 166.765 286.681 163.85 285.003 161.98Z" fill="#3F3D56"/>
<path d="M219.39 160.542H219.385C218.587 160.07 217.668 159.817 216.728 159.809C215.928 159.811 215.14 159.996 214.43 160.349C213.621 160.755 212.905 161.309 212.323 161.98L212.317 161.986C210.646 163.856 209.565 166.771 209.565 170.039C209.565 174.449 211.523 178.211 214.269 179.649C215.02 180.05 215.867 180.263 216.728 180.269C216.92 180.269 217.111 180.257 217.301 180.235H217.307C220.984 179.814 223.891 175.404 223.891 170.039C223.891 165.742 222.023 162.054 219.39 160.542Z" fill="#3F3D56"/>
<path d="M214.717 178.671C214.859 178.671 214.999 178.639 215.125 178.577C215.252 178.515 215.361 178.426 215.444 178.316C215.527 178.206 215.581 178.079 215.602 177.945C215.623 177.811 215.61 177.674 215.565 177.546C213.854 172.701 213.339 167.545 214.061 162.48C214.783 157.415 216.721 152.576 219.726 148.34C222.731 144.105 226.722 140.585 231.388 138.057C236.054 135.528 241.269 134.057 246.629 133.76C251.989 133.462 257.348 134.345 262.291 136.34C267.234 138.335 271.628 141.388 275.13 145.263C278.632 149.137 281.148 153.728 282.484 158.679C283.819 163.63 283.938 168.808 282.83 173.809C282.781 174.031 282.826 174.261 282.956 174.451C283.086 174.64 283.289 174.773 283.521 174.819C283.754 174.866 283.996 174.823 284.195 174.7C284.394 174.576 284.533 174.382 284.582 174.161C285.748 168.903 285.624 163.459 284.22 158.253C282.817 153.048 280.171 148.22 276.489 144.147C272.807 140.073 268.188 136.862 262.991 134.765C257.794 132.667 252.159 131.739 246.523 132.052C240.888 132.365 235.405 133.911 230.499 136.57C225.594 139.229 221.398 142.93 218.239 147.384C215.08 151.838 213.042 156.925 212.284 162.251C211.526 167.577 212.068 172.997 213.868 178.091C213.928 178.26 214.042 178.407 214.194 178.511C214.347 178.615 214.529 178.671 214.717 178.671Z" fill="#3F3D56"/>
<path d="M264.458 153.561C265.723 155.205 265.099 157.421 263.767 158.838C262.032 160.683 259.267 160.799 256.865 160.457C254.171 160.073 251.312 158.871 248.584 159.681C246.259 160.371 244.6 162.379 242.185 162.883C240.042 163.331 237.48 162.739 236.729 160.565C236.369 159.52 238.097 159.072 238.456 160.111C238.942 161.518 241.04 161.49 242.242 161.1C244.168 160.476 245.652 158.957 247.545 158.232C249.777 157.376 252.199 157.763 254.472 158.25C256.613 158.709 259.079 159.39 261.212 158.532C262.791 157.897 264.048 155.898 262.912 154.422C262.23 153.536 263.783 152.684 264.458 153.561V153.561Z" fill="#2F2E41"/>
<path d="M389.111 258.084H275.517C274.889 258.084 274.267 257.966 273.687 257.737C273.106 257.508 272.579 257.172 272.135 256.75C271.69 256.327 271.338 255.824 271.098 255.272C270.857 254.719 270.733 254.127 270.733 253.529C270.733 252.931 270.857 252.339 271.098 251.786C271.338 251.233 271.69 250.731 272.135 250.308C272.579 249.885 273.106 249.55 273.687 249.321C274.267 249.092 274.889 248.974 275.517 248.974H389.111C390.379 248.976 391.595 249.456 392.491 250.31C393.387 251.164 393.89 252.322 393.89 253.529C393.89 254.736 393.387 255.894 392.491 256.748C391.595 257.602 390.379 258.082 389.111 258.084V258.084Z" fill="#E6E6E6"/>
<path d="M408.844 273.455H275.517C274.889 273.456 274.266 273.339 273.685 273.11C273.104 272.882 272.576 272.546 272.131 272.123C271.686 271.7 271.333 271.198 271.093 270.645C270.852 270.092 270.728 269.499 270.728 268.901C270.728 268.302 270.852 267.71 271.093 267.157C271.333 266.604 271.686 266.101 272.131 265.678C272.576 265.255 273.104 264.92 273.685 264.691C274.266 264.463 274.889 264.346 275.517 264.346H408.844C409.473 264.346 410.096 264.463 410.677 264.691C411.258 264.92 411.786 265.255 412.23 265.678C412.675 266.101 413.028 266.604 413.269 267.157C413.51 267.71 413.633 268.302 413.633 268.901C413.633 269.499 413.51 270.092 413.269 270.645C413.028 271.198 412.675 271.7 412.23 272.123C411.786 272.546 411.258 272.882 410.677 273.11C410.096 273.339 409.473 273.456 408.844 273.455Z" fill="#E6E6E6"/>
<path d="M389.111 313.332H275.517C274.248 313.332 273.032 312.852 272.135 311.998C271.237 311.144 270.733 309.985 270.733 308.777C270.733 307.569 271.237 306.411 272.135 305.557C273.032 304.703 274.248 304.223 275.517 304.223H389.111C390.38 304.223 391.597 304.703 392.494 305.557C393.391 306.411 393.895 307.569 393.895 308.777C393.895 309.985 393.391 311.144 392.494 311.998C391.597 312.852 390.38 313.332 389.111 313.332V313.332Z" fill="#E6E6E6"/>
<path d="M408.844 328.704H275.517C274.248 328.704 273.032 328.224 272.135 327.37C271.237 326.516 270.733 325.357 270.733 324.149C270.733 322.941 271.237 321.783 272.135 320.928C273.032 320.074 274.248 319.594 275.517 319.594H408.844C410.113 319.594 411.33 320.074 412.227 320.928C413.124 321.783 413.628 322.941 413.628 324.149C413.628 325.357 413.124 326.516 412.227 327.37C411.33 328.224 410.113 328.704 408.844 328.704Z" fill="#E6E6E6"/>
<path d="M230.559 280.367C241.767 280.367 250.854 271.716 250.854 261.044C250.854 250.372 241.767 241.721 230.559 241.721C219.35 241.721 210.264 250.372 210.264 261.044C210.264 271.716 219.35 280.367 230.559 280.367Z" fill="#E6E6E6"/>
<path d="M230.559 336.062C241.767 336.062 250.854 327.411 250.854 316.739C250.854 306.068 241.767 297.416 230.559 297.416C219.35 297.416 210.264 306.068 210.264 316.739C210.264 327.411 219.35 336.062 230.559 336.062Z" fill="#E6E6E6"/>
<path d="M389.111 369.027H275.517C274.248 369.027 273.032 368.548 272.135 367.693C271.237 366.839 270.733 365.681 270.733 364.473C270.733 363.265 271.237 362.106 272.135 361.252C273.032 360.398 274.248 359.918 275.517 359.918H389.111C390.38 359.918 391.597 360.398 392.494 361.252C393.391 362.106 393.895 363.265 393.895 364.473C393.895 365.681 393.391 366.839 392.494 367.693C391.597 368.548 390.38 369.027 389.111 369.027V369.027Z" fill="#E6E6E6"/>
<path d="M408.844 384.399H275.517C274.248 384.399 273.032 383.919 272.135 383.065C271.237 382.211 270.733 381.052 270.733 379.844C270.733 378.637 271.237 377.478 272.135 376.624C273.032 375.77 274.248 375.29 275.517 375.29H408.844C410.113 375.29 411.33 375.77 412.227 376.624C413.124 377.478 413.628 378.637 413.628 379.844C413.628 381.052 413.124 382.211 412.227 383.065C411.33 383.919 410.113 384.399 408.844 384.399V384.399Z" fill="#E6E6E6"/>
<path d="M230.559 391.758C241.767 391.758 250.854 383.106 250.854 372.435C250.854 361.763 241.767 353.112 230.559 353.112C219.35 353.112 210.264 361.763 210.264 372.435C210.264 383.106 219.35 391.758 230.559 391.758Z" fill="#E6E6E6"/>
</svg>
